<svg width="96" height="110" viewBox="0 0 96 110" fill="none" xmlns="http://www.w3.org/2000/svg">
<g clip-path="url(#clip0_1_2890)">
<path d="M83.9156 21.4494C83.8403 20.9051 83.3606 20.6039 82.9643 20.5707C80.0415 20.3524 77.1187 20.1358 74.1956 19.9209C74.1957 19.9209 68.3805 14.1817 67.7423 13.5464C67.1037 12.9115 65.8564 13.1047 65.3723 13.2463C65.301 13.2672 64.1018 13.6351 62.118 14.2454C60.1755 8.68849 56.7473 3.58189 50.7162 3.58189C50.5497 3.58189 50.3783 3.5886 50.2069 3.5983C48.4917 1.34324 46.3669 0.363525 44.5316 0.363525C30.4823 0.363525 23.7701 17.8235 21.6656 26.6961C16.2064 28.3778 12.3281 29.5734 11.8328 29.7281C8.78552 30.6784 8.68915 30.7738 8.28902 33.6283C7.9879 35.7894 0.0146484 97.0883 0.0146484 97.0883L62.1439 108.661L95.8076 101.421C95.8076 101.421 83.9899 21.9937 83.9156 21.4494ZM58.6842 15.3012L53.427 16.9188C53.4289 16.5504 53.4308 16.1881 53.4308 15.7918C53.4308 12.3382 52.9485 9.55748 52.1749 7.35312C55.2825 7.74083 57.3522 11.2559 58.6842 15.3012ZM48.3199 8.03795C49.1839 10.1901 49.7457 13.2788 49.7457 17.4466C49.7457 17.6599 49.7438 17.8549 49.7419 18.0521C46.323 19.1048 42.6079 20.2478 38.8845 21.3946C40.9751 13.3734 44.8939 9.49932 48.3199 8.03795ZM44.1458 4.10978C44.7521 4.10978 45.363 4.31444 45.9476 4.71446C41.445 6.82077 36.6188 12.1257 34.5806 22.7195L25.9984 25.3619C28.3856 17.2815 34.0545 4.10978 44.1458 4.10978Z" fill="#95BF46"/>
<path d="M82.9639 20.7127C80.0411 20.4921 77.1182 20.2732 74.1952 20.0561C74.1952 20.0561 68.3801 14.2566 67.7419 13.6147C67.503 13.3759 67.1809 13.2534 66.8441 13.2007L62.1465 109.727L95.8072 102.412C95.8072 102.412 83.9895 22.1506 83.9152 21.6006C83.8399 21.0506 83.3602 20.7462 82.9639 20.7127Z" fill="#5E8E3E"/>
<path d="M50.7159 39.3983L46.565 51.802C46.565 51.802 42.9283 49.8521 38.4703 49.8521C31.9348 49.8521 31.6059 53.9722 31.6059 55.0104C31.6059 60.6754 46.3059 62.846 46.3059 76.1154C46.3059 86.5552 39.7145 93.2776 30.827 93.2776C20.162 93.2776 14.708 86.6098 14.708 86.6098L17.5636 77.1317C17.5636 77.1317 23.1699 81.9668 27.9005 81.9668C30.9916 81.9668 32.249 79.522 32.249 77.7356C32.249 70.346 20.189 70.0164 20.189 57.8738C20.189 47.654 27.491 37.7642 42.2308 37.7642C47.9101 37.7642 50.7159 39.3983 50.7159 39.3983Z" fill="white"/>
</g>
<defs>
<clipPath id="clip0_1_2890">
<rect width="96" height="110" fill="white"/>
</clipPath>
</defs>
</svg>
