<svg width="837" height="369" viewBox="0 0 837 369" fill="none" xmlns="http://www.w3.org/2000/svg">
<rect width="837" height="369" rx="14" fill="white"/>
<rect x="252.061" y="185.13" width="228.5" height="228.5" rx="19.25" transform="rotate(-45.1759 252.061 185.13)" stroke="#E0E0E0" stroke-width="1.5" stroke-dasharray="9 9"/>
<rect x="412.061" y="185.13" width="228.5" height="228.5" rx="19.25" transform="rotate(-45.1759 412.061 185.13)" stroke="#E0E0E0" stroke-width="1.5" stroke-dasharray="9 9"/>
<rect x="102.061" y="185.13" width="228.5" height="228.5" rx="19.25" transform="rotate(-45.1759 102.061 185.13)" stroke="#E0E0E0" stroke-width="1.5" stroke-dasharray="9 9"/>
<g clip-path="url(#clip0_1_2557)">
<path d="M471.118 132.852C471 132.001 470.251 131.531 469.631 131.479C465.064 131.138 460.497 130.799 455.93 130.463C455.93 130.463 446.844 121.496 445.847 120.503C444.849 119.511 442.9 119.813 442.144 120.034C442.032 120.067 440.159 120.642 437.059 121.595C434.024 112.913 428.667 104.934 419.244 104.934C418.983 104.934 418.716 104.944 418.448 104.959C415.768 101.436 412.448 99.905 409.58 99.905C387.628 99.905 377.14 127.186 373.852 141.05C365.322 143.677 359.262 145.545 358.488 145.787C353.727 147.272 353.576 147.421 352.951 151.881C352.481 155.258 340.022 251.038 340.022 251.038L437.099 269.119L489.699 257.807C489.699 257.807 471.234 133.702 471.118 132.852ZM431.694 123.245L423.479 125.773C423.482 125.197 423.485 124.631 423.485 124.012C423.485 118.615 422.732 114.271 421.523 110.826C426.379 111.432 429.612 116.924 431.694 123.245ZM415.499 111.896C416.849 115.259 417.727 120.085 417.727 126.597C417.727 126.931 417.724 127.235 417.721 127.543C412.379 129.188 406.574 130.974 400.757 132.766C404.023 120.233 410.146 114.18 415.499 111.896ZM408.977 105.759C409.925 105.759 410.879 106.078 411.793 106.703C404.757 109.994 397.216 118.283 394.032 134.836L380.622 138.965C384.352 126.339 393.21 105.759 408.977 105.759Z" fill="#95BF46"/>
<path d="M469.631 131.199C465.064 130.856 460.497 130.516 455.93 130.178C455.93 130.178 446.844 121.163 445.846 120.165C445.473 119.794 444.97 119.603 444.444 119.521L437.104 269.576L489.698 258.204C489.698 258.204 471.233 133.434 471.117 132.579C470.999 131.724 470.25 131.251 469.631 131.199Z" fill="#5E8E3E"/>
<path d="M419.244 160.247L412.758 179.529C412.758 179.529 407.076 176.498 400.11 176.498C389.898 176.498 389.384 182.902 389.384 184.516C389.384 193.323 412.353 196.697 412.353 217.325C412.353 233.554 402.054 244.004 388.167 244.004C371.503 244.004 362.981 233.639 362.981 233.639L367.443 218.905C367.443 218.905 376.203 226.421 383.595 226.421C388.425 226.421 390.389 222.621 390.389 219.844C390.389 208.356 371.546 207.844 371.546 188.968C371.546 173.08 382.955 157.706 405.986 157.706C414.86 157.706 419.244 160.247 419.244 160.247Z" fill="white"/>
</g>
<defs>
<clipPath id="clip0_1_2557">
<rect width="150" height="171" fill="white" transform="translate(340 99)"/>
</clipPath>
</defs>
</svg>
