<svg width="96" height="110" viewBox="0 0 96 110" fill="none" xmlns="http://www.w3.org/2000/svg">
<g clip-path="url(#clip0_1_3815)">
<path d="M83.9152 21.4496C83.8398 20.9053 83.3602 20.6041 82.9638 20.5709C80.041 20.3526 77.1182 20.136 74.1952 19.9211C74.1952 19.9211 68.38 14.1819 67.7418 13.5467C67.1032 12.9118 65.8559 13.1049 65.3718 13.2466C65.3005 13.2674 64.1013 13.6354 62.1175 14.2457C60.175 8.68873 56.7468 3.58214 50.7157 3.58214C50.5492 3.58214 50.3778 3.58885 50.2064 3.59854C48.4912 1.34348 46.3664 0.36377 44.5312 0.36377C30.4818 0.36377 23.7697 17.8238 21.6652 26.6964C16.2059 28.3781 12.3277 29.5736 11.8323 29.7284C8.78504 30.6786 8.68866 30.7741 8.28854 33.6286C7.98741 35.7897 0.0141602 97.0886 0.0141602 97.0886L62.1434 108.661L95.8072 101.421C95.8072 101.421 83.9894 21.9939 83.9152 21.4496ZM58.6837 15.3014L53.4265 16.919C53.4284 16.5507 53.4303 16.1883 53.4303 15.792C53.4303 12.3384 52.948 9.55772 52.1744 7.35337C55.282 7.74108 57.3517 11.2562 58.6837 15.3014ZM48.3194 8.0382C49.1834 10.1904 49.7452 13.279 49.7452 17.4469C49.7452 17.6601 49.7433 17.8551 49.7414 18.0523C46.3225 19.1051 42.6074 20.2481 38.884 21.3948C40.9747 13.3737 44.8934 9.49957 48.3194 8.0382ZM44.1453 4.11002C44.7517 4.11002 45.3625 4.31469 45.9472 4.7147C41.4445 6.82101 36.6183 12.1259 34.5802 22.7197L25.9979 25.3621C28.3852 17.2817 34.054 4.11002 44.1453 4.11002Z" fill="#95BF46"/>
<path d="M82.9639 20.7127C80.0411 20.4921 77.1182 20.2732 74.1952 20.0561C74.1952 20.0561 68.3801 14.2566 67.7419 13.6147C67.503 13.3759 67.1809 13.2534 66.8441 13.2007L62.1465 109.727L95.8072 102.412C95.8072 102.412 83.9895 22.1506 83.9152 21.6006C83.8399 21.0506 83.3602 20.7462 82.9639 20.7127Z" fill="#5E8E3E"/>
<path d="M50.7159 39.3983L46.565 51.802C46.565 51.802 42.9283 49.8521 38.4703 49.8521C31.9348 49.8521 31.6059 53.9722 31.6059 55.0104C31.6059 60.6754 46.3059 62.846 46.3059 76.1154C46.3059 86.5552 39.7145 93.2776 30.827 93.2776C20.162 93.2776 14.708 86.6098 14.708 86.6098L17.5636 77.1317C17.5636 77.1317 23.1699 81.9668 27.9005 81.9668C30.9916 81.9668 32.249 79.522 32.249 77.7356C32.249 70.346 20.189 70.0164 20.189 57.8738C20.189 47.654 27.491 37.7642 42.2308 37.7642C47.9101 37.7642 50.7159 39.3983 50.7159 39.3983Z" fill="white"/>
</g>
<defs>
<clipPath id="clip0_1_3815">
<rect width="96" height="110" fill="white"/>
</clipPath>
</defs>
</svg>
