<svg width="1200" height="478" viewBox="0 0 1200 478" fill="none" xmlns="http://www.w3.org/2000/svg">
<g clip-path="url(#clip0_39_248)">
<rect width="1200" height="478" fill="url(#paint0_linear_39_248)"/>
<path d="M-58.9233 254.814C-58.9233 254.814 30.8495 98.4789 113.054 57.637C222.495 3.26324 297.624 29.8099 327.749 108.161C352.46 172.43 345.974 228.786 320.816 273.845C293.801 322.23 241.798 377.139 218.077 392.661C173.26 421.987 99.7313 448.698 48.5095 370.307C15.3666 319.584 48.4463 244.344 100.491 213.932C168.865 173.977 260.888 200.759 244.697 166.667C199.497 107.432 92.9064 -43.9302 92.9064 -43.9302" stroke="white" stroke-opacity="0.08" stroke-width="66" stroke-linecap="round"/>
<path d="M1259.16 253.814C1259.16 253.814 1169.39 97.4789 1087.18 56.637C977.742 2.26324 902.612 28.8099 872.487 107.161C847.777 171.43 854.262 227.786 879.42 272.845C906.435 321.23 958.439 376.139 982.159 391.661C1026.98 420.987 1100.51 447.698 1151.73 369.307C1184.87 318.584 1151.79 243.344 1099.75 212.932C1031.37 172.977 939.348 199.759 955.54 165.667C1000.74 106.432 1107.33 -44.9302 1107.33 -44.9302" stroke="white" stroke-opacity="0.08" stroke-width="66" stroke-linecap="round"/>
</g>
<defs>
<linearGradient id="paint0_linear_39_248" x1="600" y1="-7.12277e-06" x2="600" y2="478" gradientUnits="userSpaceOnUse">
<stop stop-color="#0357F0"/>
<stop offset="1" stop-color="#DBE8FF"/>
</linearGradient>
<clipPath id="clip0_39_248">
<rect width="1200" height="478" fill="white"/>
</clipPath>
</defs>
</svg>
