<svg width="340" height="561" viewBox="0 0 340 561" fill="none" xmlns="http://www.w3.org/2000/svg">
<g clip-path="url(#clip0_39_250)">
<rect width="340" height="561" fill="url(#paint0_linear_39_250)"/>
<path d="M-41.4617 107.383C-41.4617 107.383 3.42474 29.2155 44.527 8.79456C99.2474 -18.3923 136.812 -5.11897 151.874 34.0566C164.23 66.1912 160.987 94.3689 148.408 116.899C134.901 141.091 108.899 168.546 97.0384 176.306C74.6298 190.969 37.8656 204.325 12.2547 165.129C-4.31675 139.768 12.2231 102.148 38.2453 86.9418C72.4327 66.9646 118.444 80.3555 110.348 63.3098C87.7486 33.6922 34.4531 -41.989 34.4531 -41.989" stroke="white" stroke-opacity="0.08" stroke-width="40" stroke-linecap="round"/>
<path d="M382.021 519.384C382.021 519.384 337.134 441.216 296.032 420.796C241.312 393.609 203.747 406.882 188.685 446.058C176.329 478.192 179.572 506.37 192.151 528.9C205.658 553.092 231.66 580.547 243.521 588.307C265.929 602.97 302.693 616.326 328.304 577.13C344.876 551.769 328.336 514.149 302.314 498.943C268.126 478.966 222.115 492.357 230.211 475.311C252.811 445.693 306.106 370.012 306.106 370.012" stroke="white" stroke-opacity="0.08" stroke-width="40" stroke-linecap="round"/>
</g>
<defs>
<linearGradient id="paint0_linear_39_250" x1="170" y1="-8.35957e-06" x2="170" y2="561" gradientUnits="userSpaceOnUse">
<stop stop-color="#0357F0"/>
<stop offset="1" stop-color="#DBE8FF"/>
</linearGradient>
<clipPath id="clip0_39_250">
<rect width="340" height="561" fill="white"/>
</clipPath>
</defs>
</svg>
