<svg width="49" height="56" viewBox="0 0 49 56" fill="none" xmlns="http://www.w3.org/2000/svg">
<g clip-path="url(#clip0_1_5715)">
<path d="M42.8318 10.9967C42.7933 10.7167 42.5485 10.5618 42.3462 10.5447C40.8544 10.4324 39.3625 10.321 37.8705 10.2104C37.8705 10.2104 34.9024 7.25796 34.5766 6.93117C34.2507 6.60457 33.6141 6.70391 33.3669 6.77678C33.3306 6.78752 32.7185 6.97681 31.7059 7.29076C30.7144 4.43207 28.9646 1.80506 25.8862 1.80506C25.8012 1.80506 25.7138 1.80851 25.6263 1.8135C24.7508 0.653414 23.6663 0.149414 22.7295 0.149414C15.5585 0.149414 12.1325 9.13147 11.0584 13.6959C8.27186 14.561 6.29234 15.176 6.03949 15.2556C4.48412 15.7445 4.43493 15.7936 4.2307 17.262C4.077 18.3738 0.00732422 49.9081 0.00732422 49.9081L31.7191 55.8614L48.9017 52.137C48.9017 52.137 42.8697 11.2767 42.8318 10.9967ZM29.9532 7.83388L27.2699 8.66602C27.2708 8.47654 27.2718 8.29013 27.2718 8.08626C27.2718 6.30961 27.0257 4.87911 26.6308 3.74511C28.217 3.94457 29.2733 5.75287 29.9532 7.83388ZM24.6631 4.09741C25.1041 5.20457 25.3909 6.79347 25.3909 8.93758C25.3909 9.04728 25.3899 9.14758 25.3889 9.24903C23.6439 9.79062 21.7476 10.3786 19.8472 10.9685C20.9142 6.84218 22.9144 4.8492 24.6631 4.09741ZM22.5326 2.07662C22.8421 2.07662 23.1539 2.18191 23.4523 2.38769C21.1541 3.47125 18.6907 6.20029 17.6504 11.6501L13.2699 13.0095C14.4884 8.85262 17.3818 2.07662 22.5326 2.07662Z" fill="#95BF46"/>
<path d="M42.3462 10.5448C40.8544 10.4324 39.3625 10.321 37.8706 10.2105C37.8706 10.2105 34.9025 7.25802 34.5767 6.93123C34.4548 6.80964 34.2903 6.74731 34.1185 6.72046L31.7207 55.861L48.9017 52.137C48.9017 52.137 42.8697 11.2768 42.8318 10.9968C42.7934 10.7168 42.5486 10.5618 42.3462 10.5448Z" fill="#5E8E3E"/>
<path d="M25.8861 20.0573L23.7674 26.3719C23.7674 26.3719 21.9112 25.3792 19.6357 25.3792C16.2999 25.3792 16.132 27.4767 16.132 28.0053C16.132 30.8893 23.6352 31.9943 23.6352 38.7496C23.6352 44.0644 20.2708 47.4867 15.7345 47.4867C10.2909 47.4867 7.50708 44.0922 7.50708 44.0922L8.96464 39.267C8.96464 39.267 11.8262 41.7285 14.2408 41.7285C15.8185 41.7285 16.4603 40.4839 16.4603 39.5744C16.4603 35.8125 10.3047 35.6447 10.3047 29.463C10.3047 24.2602 14.0317 19.2253 21.5552 19.2253C24.454 19.2253 25.8861 20.0573 25.8861 20.0573Z" fill="white"/>
</g>
<defs>
<clipPath id="clip0_1_5715">
<rect width="49" height="56" fill="white"/>
</clipPath>
</defs>
</svg>
