<svg width="768" height="369" viewBox="0 0 768 369" fill="none" xmlns="http://www.w3.org/2000/svg">
<rect width="768" height="369" rx="14" fill="white"/>
<rect x="322" y="151.5" width="219" height="59" rx="29.5" fill="#0357F0"/>
<path d="M353 170C350.824 170 348.698 170.645 346.889 171.854C345.08 173.063 343.67 174.78 342.837 176.79C342.005 178.8 341.787 181.012 342.211 183.146C342.636 185.28 343.683 187.24 345.222 188.778C346.76 190.317 348.72 191.364 350.854 191.789C352.988 192.213 355.2 191.995 357.21 191.163C359.22 190.33 360.937 188.92 362.146 187.111C363.355 185.302 364 183.176 364 181C363.997 178.084 362.837 175.287 360.775 173.225C358.713 171.163 355.916 170.003 353 170ZM362.308 181C362.31 183.176 361.546 185.284 360.149 186.953L347.047 173.85C348.406 172.719 350.059 171.999 351.813 171.774C353.567 171.548 355.348 171.827 356.949 172.577C358.55 173.327 359.904 174.518 360.853 176.009C361.802 177.501 362.307 179.232 362.308 181ZM343.692 181C343.69 178.824 344.454 176.716 345.851 175.047L358.953 188.15C357.594 189.281 355.941 190.001 354.187 190.226C352.433 190.452 350.652 190.173 349.051 189.423C347.45 188.673 346.096 187.482 345.147 185.991C344.198 184.499 343.693 182.768 343.692 181Z" fill="white"/>
<path d="M385.775 176.631C385.684 175.824 385.309 175.199 384.65 174.756C383.991 174.307 383.161 174.082 382.161 174.082C381.445 174.082 380.826 174.196 380.303 174.423C379.781 174.645 379.374 174.952 379.085 175.344C378.801 175.73 378.659 176.17 378.659 176.665C378.659 177.08 378.755 177.437 378.948 177.739C379.147 178.04 379.406 178.293 379.724 178.497C380.048 178.696 380.394 178.864 380.764 179C381.133 179.131 381.488 179.239 381.829 179.324L383.534 179.767C384.09 179.903 384.661 180.088 385.247 180.321C385.832 180.554 386.374 180.861 386.874 181.241C387.374 181.622 387.778 182.094 388.085 182.656C388.397 183.219 388.553 183.892 388.553 184.676C388.553 185.665 388.298 186.543 387.786 187.31C387.281 188.077 386.545 188.682 385.579 189.125C384.619 189.568 383.457 189.79 382.093 189.79C380.786 189.79 379.656 189.582 378.701 189.168C377.747 188.753 376.999 188.165 376.46 187.403C375.92 186.636 375.622 185.727 375.565 184.676H378.207C378.258 185.307 378.463 185.832 378.82 186.253C379.184 186.668 379.647 186.977 380.21 187.182C380.778 187.381 381.4 187.48 382.076 187.48C382.82 187.48 383.482 187.364 384.062 187.131C384.647 186.892 385.107 186.562 385.443 186.142C385.778 185.716 385.945 185.219 385.945 184.651C385.945 184.134 385.798 183.71 385.502 183.381C385.213 183.051 384.818 182.778 384.318 182.562C383.823 182.347 383.264 182.156 382.639 181.991L380.576 181.429C379.178 181.048 378.07 180.489 377.252 179.75C376.44 179.011 376.034 178.034 376.034 176.818C376.034 175.812 376.306 174.935 376.852 174.185C377.397 173.435 378.136 172.852 379.068 172.438C379.999 172.017 381.051 171.807 382.221 171.807C383.403 171.807 384.445 172.014 385.349 172.429C386.258 172.844 386.974 173.415 387.497 174.142C388.019 174.864 388.292 175.693 388.315 176.631H385.775ZM399.308 184.071V176.409H401.865V189.5H399.36V187.233H399.223C398.922 187.932 398.439 188.514 397.774 188.98C397.115 189.44 396.294 189.67 395.311 189.67C394.47 189.67 393.726 189.486 393.078 189.116C392.436 188.741 391.931 188.188 391.561 187.455C391.198 186.722 391.016 185.815 391.016 184.736V176.409H393.564V184.429C393.564 185.321 393.811 186.031 394.306 186.56C394.8 187.088 395.442 187.352 396.232 187.352C396.709 187.352 397.183 187.233 397.655 186.994C398.132 186.756 398.527 186.395 398.84 185.912C399.158 185.429 399.314 184.815 399.308 184.071ZM409.71 189.756C408.653 189.756 407.71 189.486 406.88 188.946C406.056 188.401 405.409 187.625 404.937 186.619C404.471 185.608 404.238 184.395 404.238 182.98C404.238 181.565 404.474 180.355 404.946 179.349C405.423 178.344 406.076 177.574 406.906 177.04C407.735 176.506 408.676 176.239 409.727 176.239C410.539 176.239 411.193 176.375 411.687 176.648C412.187 176.915 412.574 177.227 412.846 177.585C413.125 177.943 413.341 178.259 413.494 178.531H413.647V172.045H416.196V189.5H413.707V187.463H413.494C413.341 187.741 413.119 188.06 412.829 188.418C412.545 188.776 412.153 189.088 411.653 189.355C411.153 189.622 410.505 189.756 409.71 189.756ZM410.272 187.582C411.005 187.582 411.625 187.389 412.13 187.003C412.642 186.611 413.028 186.068 413.289 185.375C413.556 184.682 413.69 183.875 413.69 182.955C413.69 182.045 413.559 181.25 413.298 180.568C413.037 179.886 412.653 179.355 412.147 178.974C411.642 178.594 411.017 178.403 410.272 178.403C409.505 178.403 408.866 178.602 408.355 179C407.843 179.398 407.457 179.94 407.196 180.628C406.94 181.315 406.812 182.091 406.812 182.955C406.812 183.83 406.943 184.616 407.204 185.315C407.466 186.014 407.852 186.568 408.363 186.977C408.88 187.381 409.517 187.582 410.272 187.582ZM424.253 189.756C423.197 189.756 422.253 189.486 421.424 188.946C420.6 188.401 419.952 187.625 419.481 186.619C419.015 185.608 418.782 184.395 418.782 182.98C418.782 181.565 419.018 180.355 419.489 179.349C419.966 178.344 420.62 177.574 421.449 177.04C422.279 176.506 423.219 176.239 424.27 176.239C425.083 176.239 425.736 176.375 426.231 176.648C426.731 176.915 427.117 177.227 427.39 177.585C427.668 177.943 427.884 178.259 428.037 178.531H428.191V172.045H430.739V189.5H428.25V187.463H428.037C427.884 187.741 427.662 188.06 427.373 188.418C427.089 188.776 426.697 189.088 426.197 189.355C425.697 189.622 425.049 189.756 424.253 189.756ZM424.816 187.582C425.549 187.582 426.168 187.389 426.674 187.003C427.185 186.611 427.572 186.068 427.833 185.375C428.1 184.682 428.233 183.875 428.233 182.955C428.233 182.045 428.103 181.25 427.841 180.568C427.58 179.886 427.197 179.355 426.691 178.974C426.185 178.594 425.56 178.403 424.816 178.403C424.049 178.403 423.41 178.602 422.898 179C422.387 179.398 422 179.94 421.739 180.628C421.483 181.315 421.356 182.091 421.356 182.955C421.356 183.83 421.486 184.616 421.748 185.315C422.009 186.014 422.395 186.568 422.907 186.977C423.424 187.381 424.06 187.582 424.816 187.582ZM439.538 189.764C438.248 189.764 437.138 189.489 436.206 188.938C435.28 188.381 434.564 187.599 434.058 186.594C433.558 185.582 433.308 184.398 433.308 183.04C433.308 181.699 433.558 180.517 434.058 179.494C434.564 178.472 435.268 177.673 436.172 177.099C437.081 176.526 438.143 176.239 439.359 176.239C440.098 176.239 440.814 176.361 441.507 176.605C442.2 176.849 442.822 177.233 443.373 177.756C443.925 178.278 444.359 178.957 444.677 179.793C444.996 180.622 445.155 181.631 445.155 182.818V183.722H434.748V181.812H442.658C442.658 181.142 442.521 180.548 442.248 180.031C441.976 179.509 441.592 179.097 441.098 178.795C440.609 178.494 440.035 178.344 439.376 178.344C438.66 178.344 438.035 178.52 437.501 178.872C436.973 179.219 436.564 179.673 436.274 180.236C435.99 180.793 435.848 181.398 435.848 182.051V183.543C435.848 184.418 436.001 185.162 436.308 185.776C436.621 186.389 437.055 186.858 437.612 187.182C438.169 187.5 438.819 187.659 439.564 187.659C440.047 187.659 440.487 187.591 440.885 187.455C441.283 187.312 441.626 187.102 441.916 186.824C442.206 186.545 442.427 186.202 442.581 185.793L444.993 186.227C444.8 186.937 444.453 187.56 443.953 188.094C443.459 188.622 442.837 189.034 442.087 189.33C441.342 189.619 440.493 189.764 439.538 189.764ZM450.05 181.727V189.5H447.502V176.409H449.948V178.54H450.11C450.411 177.847 450.883 177.29 451.525 176.869C452.173 176.449 452.988 176.239 453.971 176.239C454.863 176.239 455.644 176.426 456.315 176.801C456.985 177.17 457.505 177.722 457.874 178.455C458.244 179.187 458.428 180.094 458.428 181.173V189.5H455.88V181.48C455.88 180.531 455.633 179.79 455.138 179.256C454.644 178.716 453.965 178.446 453.102 178.446C452.511 178.446 451.985 178.574 451.525 178.83C451.07 179.085 450.71 179.46 450.442 179.955C450.181 180.443 450.05 181.034 450.05 181.727ZM467.442 189.5V172.045H473.834C475.073 172.045 476.098 172.25 476.911 172.659C477.723 173.062 478.331 173.611 478.735 174.304C479.138 174.991 479.34 175.767 479.34 176.631C479.34 177.358 479.206 177.972 478.939 178.472C478.672 178.966 478.314 179.364 477.865 179.665C477.422 179.96 476.933 180.176 476.399 180.312V180.483C476.979 180.511 477.544 180.699 478.095 181.045C478.652 181.386 479.112 181.872 479.476 182.503C479.84 183.134 480.022 183.901 480.022 184.804C480.022 185.696 479.811 186.497 479.391 187.207C478.976 187.912 478.334 188.472 477.465 188.886C476.595 189.295 475.485 189.5 474.132 189.5H467.442ZM470.076 187.241H473.877C475.138 187.241 476.041 186.997 476.587 186.509C477.132 186.02 477.405 185.409 477.405 184.676C477.405 184.125 477.266 183.619 476.987 183.159C476.709 182.699 476.311 182.332 475.794 182.06C475.283 181.787 474.675 181.651 473.97 181.651H470.076V187.241ZM470.076 179.597H473.604C474.195 179.597 474.726 179.483 475.198 179.256C475.675 179.028 476.053 178.71 476.331 178.301C476.615 177.886 476.757 177.398 476.757 176.835C476.757 176.114 476.504 175.509 475.999 175.02C475.493 174.531 474.718 174.287 473.672 174.287H470.076V179.597ZM486.27 189.79C485.441 189.79 484.691 189.636 484.02 189.33C483.35 189.017 482.819 188.565 482.426 187.974C482.04 187.384 481.847 186.659 481.847 185.801C481.847 185.062 481.989 184.455 482.273 183.977C482.557 183.5 482.941 183.122 483.424 182.844C483.907 182.565 484.446 182.355 485.043 182.213C485.64 182.071 486.248 181.963 486.867 181.889C487.651 181.798 488.287 181.724 488.776 181.668C489.265 181.605 489.62 181.506 489.841 181.369C490.063 181.233 490.174 181.011 490.174 180.705V180.645C490.174 179.901 489.963 179.324 489.543 178.915C489.128 178.506 488.509 178.301 487.685 178.301C486.827 178.301 486.151 178.491 485.657 178.872C485.168 179.247 484.83 179.665 484.642 180.125L482.248 179.58C482.532 178.784 482.946 178.142 483.492 177.653C484.043 177.159 484.676 176.801 485.392 176.58C486.108 176.352 486.861 176.239 487.651 176.239C488.174 176.239 488.728 176.301 489.313 176.426C489.904 176.545 490.455 176.767 490.966 177.091C491.483 177.415 491.907 177.878 492.236 178.48C492.566 179.077 492.73 179.852 492.73 180.807V189.5H490.242V187.71H490.14C489.975 188.04 489.728 188.364 489.398 188.682C489.069 189 488.645 189.264 488.128 189.474C487.611 189.685 486.992 189.79 486.27 189.79ZM486.824 187.744C487.529 187.744 488.131 187.605 488.631 187.327C489.137 187.048 489.52 186.685 489.782 186.236C490.049 185.781 490.182 185.295 490.182 184.778V183.091C490.091 183.182 489.915 183.267 489.654 183.347C489.398 183.42 489.105 183.486 488.776 183.543C488.446 183.594 488.125 183.642 487.813 183.688C487.5 183.727 487.239 183.761 487.029 183.79C486.534 183.852 486.083 183.957 485.674 184.105C485.27 184.253 484.946 184.466 484.702 184.744C484.463 185.017 484.344 185.381 484.344 185.835C484.344 186.466 484.577 186.943 485.043 187.267C485.509 187.585 486.103 187.744 486.824 187.744ZM498.193 181.727V189.5H495.645V176.409H498.091V178.54H498.253C498.554 177.847 499.025 177.29 499.667 176.869C500.315 176.449 501.13 176.239 502.113 176.239C503.005 176.239 503.787 176.426 504.457 176.801C505.128 177.17 505.647 177.722 506.017 178.455C506.386 179.187 506.571 180.094 506.571 181.173V189.5H504.022V181.48C504.022 180.531 503.775 179.79 503.281 179.256C502.787 178.716 502.108 178.446 501.244 178.446C500.653 178.446 500.128 178.574 499.667 178.83C499.213 179.085 498.852 179.46 498.585 179.955C498.324 180.443 498.193 181.034 498.193 181.727ZM519.318 179.605L517.008 180.014C516.912 179.719 516.758 179.437 516.548 179.17C516.344 178.903 516.065 178.685 515.713 178.514C515.361 178.344 514.92 178.259 514.392 178.259C513.67 178.259 513.068 178.42 512.585 178.744C512.102 179.062 511.861 179.474 511.861 179.98C511.861 180.418 512.023 180.77 512.346 181.037C512.67 181.304 513.193 181.523 513.915 181.693L515.994 182.17C517.199 182.449 518.096 182.878 518.687 183.457C519.278 184.037 519.574 184.79 519.574 185.716C519.574 186.5 519.346 187.199 518.892 187.812C518.443 188.42 517.815 188.898 517.008 189.244C516.207 189.591 515.278 189.764 514.221 189.764C512.756 189.764 511.56 189.452 510.633 188.827C509.707 188.196 509.139 187.301 508.929 186.142L511.392 185.767C511.545 186.409 511.861 186.895 512.338 187.224C512.815 187.548 513.437 187.71 514.204 187.71C515.04 187.71 515.707 187.537 516.207 187.19C516.707 186.838 516.957 186.409 516.957 185.903C516.957 185.494 516.804 185.151 516.497 184.872C516.196 184.594 515.733 184.384 515.108 184.241L512.892 183.756C511.67 183.477 510.767 183.034 510.182 182.426C509.602 181.818 509.312 181.048 509.312 180.116C509.312 179.344 509.528 178.668 509.96 178.088C510.392 177.509 510.989 177.057 511.75 176.733C512.511 176.403 513.383 176.239 514.366 176.239C515.781 176.239 516.895 176.545 517.707 177.159C518.52 177.767 519.057 178.582 519.318 179.605Z" fill="white"/>
<rect x="442" y="253.5" width="202" height="59" rx="29.5" fill="#0357F0"/>
<path d="M471.692 273.63V272.815C471.692 272.599 471.777 272.391 471.929 272.239C472.08 272.086 472.286 272 472.5 272C472.714 272 472.92 272.086 473.071 272.239C473.223 272.391 473.308 272.599 473.308 272.815V273.63C473.308 273.846 473.223 274.053 473.071 274.206C472.92 274.359 472.714 274.444 472.5 274.444C472.286 274.444 472.08 274.359 471.929 274.206C471.777 274.053 471.692 273.846 471.692 273.63ZM479.769 276.889C479.875 276.889 479.98 276.868 480.078 276.827C480.177 276.786 480.266 276.726 480.341 276.651L481.148 275.836C481.3 275.683 481.385 275.475 481.385 275.259C481.385 275.043 481.3 274.836 481.148 274.683C480.997 274.53 480.791 274.444 480.577 274.444C480.363 274.444 480.157 274.53 480.005 274.683L479.198 275.498C479.085 275.612 479.008 275.757 478.976 275.915C478.945 276.073 478.961 276.237 479.022 276.386C479.084 276.535 479.187 276.662 479.32 276.752C479.453 276.841 479.609 276.889 479.769 276.889ZM464.659 276.651C464.734 276.726 464.823 276.786 464.922 276.827C465.02 276.868 465.125 276.889 465.231 276.889C465.337 276.889 465.442 276.868 465.54 276.827C465.638 276.786 465.727 276.726 465.802 276.651C465.877 276.575 465.937 276.485 465.977 276.386C466.018 276.287 466.039 276.181 466.039 276.074C466.039 275.967 466.018 275.861 465.977 275.762C465.937 275.663 465.877 275.573 465.802 275.498L464.995 274.683C464.843 274.53 464.637 274.444 464.423 274.444C464.209 274.444 464.003 274.53 463.852 274.683C463.7 274.836 463.615 275.043 463.615 275.259C463.615 275.475 463.7 275.683 463.852 275.836L464.659 276.651ZM473.443 279.345C473.338 279.326 473.23 279.328 473.126 279.352C473.022 279.375 472.923 279.419 472.836 279.481C472.749 279.543 472.675 279.622 472.618 279.714C472.562 279.805 472.523 279.906 472.506 280.012C472.488 280.119 472.492 280.227 472.516 280.332C472.54 280.437 472.585 280.536 472.647 280.623C472.709 280.711 472.788 280.785 472.879 280.841C472.97 280.897 473.071 280.935 473.176 280.952C475.092 281.277 476.538 283.033 476.538 285.037C476.538 285.253 476.624 285.46 476.775 285.613C476.927 285.766 477.132 285.852 477.346 285.852C477.56 285.852 477.766 285.766 477.917 285.613C478.069 285.46 478.154 285.253 478.154 285.037C478.154 282.246 476.128 279.799 473.441 279.345H473.443ZM483 289.926V292.37C483 292.803 482.83 293.217 482.527 293.523C482.224 293.828 481.813 294 481.385 294H463.615C463.187 294 462.776 293.828 462.473 293.523C462.17 293.217 462 292.803 462 292.37V289.926C462 289.494 462.17 289.079 462.473 288.774C462.776 288.468 463.187 288.296 463.615 288.296V285.037C463.615 283.854 463.847 282.683 464.298 281.591C464.749 280.499 465.409 279.508 466.241 278.675C467.074 277.842 468.061 277.183 469.147 276.737C470.233 276.29 471.395 276.065 472.568 276.074C477.429 276.111 481.385 280.178 481.385 285.139V288.296C481.813 288.296 482.224 288.468 482.527 288.774C482.83 289.079 483 289.494 483 289.926ZM465.231 288.296H479.769V285.139C479.769 281.065 476.533 277.733 472.556 277.704H472.5C470.572 277.704 468.723 278.476 467.36 279.852C465.997 281.227 465.231 283.092 465.231 285.037V288.296ZM481.385 292.37V289.926H463.615V292.37H481.385Z" fill="white"/>
<path d="M504.627 278.631C504.536 277.824 504.161 277.199 503.502 276.756C502.842 276.307 502.013 276.082 501.013 276.082C500.297 276.082 499.678 276.196 499.155 276.423C498.632 276.645 498.226 276.952 497.936 277.344C497.652 277.73 497.51 278.17 497.51 278.665C497.51 279.08 497.607 279.437 497.8 279.739C497.999 280.04 498.257 280.293 498.575 280.497C498.899 280.696 499.246 280.864 499.615 281C499.985 281.131 500.34 281.239 500.681 281.324L502.385 281.767C502.942 281.903 503.513 282.088 504.098 282.321C504.683 282.554 505.226 282.861 505.726 283.241C506.226 283.622 506.629 284.094 506.936 284.656C507.249 285.219 507.405 285.892 507.405 286.676C507.405 287.665 507.149 288.543 506.638 289.31C506.132 290.077 505.396 290.682 504.431 291.125C503.47 291.568 502.308 291.79 500.945 291.79C499.638 291.79 498.507 291.582 497.553 291.168C496.598 290.753 495.851 290.165 495.311 289.403C494.771 288.636 494.473 287.727 494.416 286.676H497.058C497.11 287.307 497.314 287.832 497.672 288.253C498.036 288.668 498.499 288.977 499.061 289.182C499.629 289.381 500.252 289.48 500.928 289.48C501.672 289.48 502.334 289.364 502.913 289.131C503.499 288.892 503.959 288.562 504.294 288.142C504.629 287.716 504.797 287.219 504.797 286.651C504.797 286.134 504.649 285.71 504.354 285.381C504.064 285.051 503.669 284.778 503.169 284.562C502.675 284.347 502.115 284.156 501.49 283.991L499.428 283.429C498.03 283.048 496.922 282.489 496.104 281.75C495.291 281.011 494.885 280.034 494.885 278.818C494.885 277.812 495.158 276.935 495.703 276.185C496.249 275.435 496.987 274.852 497.919 274.438C498.851 274.017 499.902 273.807 501.073 273.807C502.254 273.807 503.297 274.014 504.2 274.429C505.11 274.844 505.825 275.415 506.348 276.142C506.871 276.864 507.144 277.693 507.166 278.631H504.627ZM512.416 283.727V291.5H509.867V274.045H512.382V280.54H512.544C512.85 279.835 513.319 279.276 513.95 278.861C514.581 278.446 515.404 278.239 516.421 278.239C517.319 278.239 518.103 278.423 518.774 278.793C519.45 279.162 519.973 279.713 520.342 280.446C520.717 281.173 520.904 282.082 520.904 283.173V291.5H518.356V283.48C518.356 282.52 518.109 281.776 517.615 281.247C517.12 280.713 516.433 280.446 515.552 280.446C514.95 280.446 514.41 280.574 513.933 280.83C513.461 281.085 513.089 281.46 512.816 281.955C512.549 282.443 512.416 283.034 512.416 283.727ZM527.635 291.79C526.805 291.79 526.055 291.636 525.385 291.33C524.714 291.017 524.183 290.565 523.791 289.974C523.404 289.384 523.211 288.659 523.211 287.801C523.211 287.062 523.353 286.455 523.637 285.977C523.922 285.5 524.305 285.122 524.788 284.844C525.271 284.565 525.811 284.355 526.407 284.213C527.004 284.071 527.612 283.963 528.231 283.889C529.015 283.798 529.652 283.724 530.14 283.668C530.629 283.605 530.984 283.506 531.206 283.369C531.427 283.233 531.538 283.011 531.538 282.705V282.645C531.538 281.901 531.328 281.324 530.907 280.915C530.493 280.506 529.873 280.301 529.049 280.301C528.191 280.301 527.515 280.491 527.021 280.872C526.532 281.247 526.194 281.665 526.007 282.125L523.612 281.58C523.896 280.784 524.311 280.142 524.856 279.653C525.407 279.159 526.041 278.801 526.757 278.58C527.473 278.352 528.226 278.239 529.015 278.239C529.538 278.239 530.092 278.301 530.677 278.426C531.268 278.545 531.819 278.767 532.331 279.091C532.848 279.415 533.271 279.878 533.601 280.48C533.93 281.077 534.095 281.852 534.095 282.807V291.5H531.606V289.71H531.504C531.339 290.04 531.092 290.364 530.762 290.682C530.433 291 530.01 291.264 529.493 291.474C528.976 291.685 528.356 291.79 527.635 291.79ZM528.189 289.744C528.893 289.744 529.495 289.605 529.995 289.327C530.501 289.048 530.885 288.685 531.146 288.236C531.413 287.781 531.547 287.295 531.547 286.778V285.091C531.456 285.182 531.279 285.267 531.018 285.347C530.762 285.42 530.47 285.486 530.14 285.543C529.811 285.594 529.49 285.642 529.177 285.688C528.865 285.727 528.603 285.761 528.393 285.79C527.899 285.852 527.447 285.957 527.038 286.105C526.635 286.253 526.311 286.466 526.066 286.744C525.828 287.017 525.708 287.381 525.708 287.835C525.708 288.466 525.941 288.943 526.407 289.267C526.873 289.585 527.467 289.744 528.189 289.744ZM537.009 291.5V278.409H539.472V280.489H539.608C539.847 279.784 540.268 279.23 540.87 278.827C541.478 278.418 542.165 278.213 542.932 278.213C543.091 278.213 543.279 278.219 543.495 278.23C543.716 278.241 543.89 278.256 544.015 278.273V280.71C543.912 280.682 543.731 280.651 543.469 280.616C543.208 280.577 542.947 280.557 542.685 280.557C542.083 280.557 541.546 280.685 541.074 280.94C540.608 281.19 540.239 281.54 539.966 281.989C539.694 282.432 539.557 282.937 539.557 283.506V291.5H537.009ZM550.913 291.764C549.623 291.764 548.513 291.489 547.581 290.938C546.655 290.381 545.939 289.599 545.433 288.594C544.933 287.582 544.683 286.398 544.683 285.04C544.683 283.699 544.933 282.517 545.433 281.494C545.939 280.472 546.643 279.673 547.547 279.099C548.456 278.526 549.518 278.239 550.734 278.239C551.473 278.239 552.189 278.361 552.882 278.605C553.575 278.849 554.197 279.233 554.748 279.756C555.3 280.278 555.734 280.957 556.052 281.793C556.371 282.622 556.53 283.631 556.53 284.818V285.722H546.123V283.812H554.033C554.033 283.142 553.896 282.548 553.623 282.031C553.351 281.509 552.967 281.097 552.473 280.795C551.984 280.494 551.41 280.344 550.751 280.344C550.035 280.344 549.41 280.52 548.876 280.872C548.348 281.219 547.939 281.673 547.649 282.236C547.365 282.793 547.223 283.398 547.223 284.051V285.543C547.223 286.418 547.376 287.162 547.683 287.776C547.996 288.389 548.43 288.858 548.987 289.182C549.544 289.5 550.194 289.659 550.939 289.659C551.422 289.659 551.862 289.591 552.26 289.455C552.658 289.312 553.001 289.102 553.291 288.824C553.581 288.545 553.802 288.202 553.956 287.793L556.368 288.227C556.175 288.937 555.828 289.56 555.328 290.094C554.834 290.622 554.212 291.034 553.462 291.33C552.717 291.619 551.868 291.764 550.913 291.764ZM563.778 291.756C562.721 291.756 561.778 291.486 560.948 290.946C560.124 290.401 559.477 289.625 559.005 288.619C558.539 287.608 558.306 286.395 558.306 284.98C558.306 283.565 558.542 282.355 559.013 281.349C559.491 280.344 560.144 279.574 560.974 279.04C561.803 278.506 562.744 278.239 563.795 278.239C564.607 278.239 565.261 278.375 565.755 278.648C566.255 278.915 566.641 279.227 566.914 279.585C567.192 279.943 567.408 280.259 567.562 280.531H567.715V274.045H570.263V291.5H567.775V289.463H567.562C567.408 289.741 567.187 290.06 566.897 290.418C566.613 290.776 566.221 291.088 565.721 291.355C565.221 291.622 564.573 291.756 563.778 291.756ZM564.34 289.582C565.073 289.582 565.692 289.389 566.198 289.003C566.71 288.611 567.096 288.068 567.357 287.375C567.624 286.682 567.758 285.875 567.758 284.955C567.758 284.045 567.627 283.25 567.366 282.568C567.104 281.886 566.721 281.355 566.215 280.974C565.71 280.594 565.085 280.403 564.34 280.403C563.573 280.403 562.934 280.602 562.423 281C561.911 281.398 561.525 281.94 561.263 282.628C561.008 283.315 560.88 284.091 560.88 284.955C560.88 285.83 561.011 286.616 561.272 287.315C561.533 288.014 561.92 288.568 562.431 288.977C562.948 289.381 563.585 289.582 564.34 289.582ZM579.497 291.5V274.045H585.718C587.071 274.045 588.193 274.278 589.085 274.744C589.982 275.21 590.653 275.855 591.096 276.679C591.539 277.497 591.761 278.443 591.761 279.517C591.761 280.585 591.536 281.526 591.088 282.338C590.644 283.145 589.974 283.773 589.076 284.222C588.184 284.67 587.062 284.895 585.71 284.895H580.997V282.628H585.471C586.323 282.628 587.017 282.506 587.551 282.261C588.09 282.017 588.485 281.662 588.735 281.196C588.985 280.73 589.11 280.17 589.11 279.517C589.11 278.858 588.982 278.287 588.727 277.804C588.477 277.321 588.082 276.952 587.542 276.696C587.008 276.435 586.306 276.304 585.437 276.304H582.13V291.5H579.497ZM588.113 283.625L592.426 291.5H589.426L585.198 283.625H588.113ZM594.281 291.5V278.409H596.829V291.5H594.281ZM595.568 276.389C595.125 276.389 594.744 276.241 594.426 275.946C594.113 275.645 593.957 275.287 593.957 274.872C593.957 274.452 594.113 274.094 594.426 273.798C594.744 273.497 595.125 273.347 595.568 273.347C596.011 273.347 596.389 273.497 596.701 273.798C597.02 274.094 597.179 274.452 597.179 274.872C597.179 275.287 597.02 275.645 596.701 275.946C596.389 276.241 596.011 276.389 595.568 276.389ZM609.587 281.605L607.277 282.014C607.181 281.719 607.027 281.437 606.817 281.17C606.613 280.903 606.334 280.685 605.982 280.514C605.63 280.344 605.189 280.259 604.661 280.259C603.939 280.259 603.337 280.42 602.854 280.744C602.371 281.062 602.13 281.474 602.13 281.98C602.13 282.418 602.292 282.77 602.616 283.037C602.939 283.304 603.462 283.523 604.184 283.693L606.263 284.17C607.468 284.449 608.366 284.878 608.956 285.457C609.547 286.037 609.843 286.79 609.843 287.716C609.843 288.5 609.616 289.199 609.161 289.812C608.712 290.42 608.084 290.898 607.277 291.244C606.476 291.591 605.547 291.764 604.491 291.764C603.025 291.764 601.829 291.452 600.902 290.827C599.976 290.196 599.408 289.301 599.198 288.142L601.661 287.767C601.814 288.409 602.13 288.895 602.607 289.224C603.084 289.548 603.706 289.71 604.473 289.71C605.309 289.71 605.976 289.537 606.476 289.19C606.976 288.838 607.226 288.409 607.226 287.903C607.226 287.494 607.073 287.151 606.766 286.872C606.465 286.594 606.002 286.384 605.377 286.241L603.161 285.756C601.939 285.477 601.036 285.034 600.451 284.426C599.871 283.818 599.581 283.048 599.581 282.116C599.581 281.344 599.797 280.668 600.229 280.088C600.661 279.509 601.258 279.057 602.019 278.733C602.78 278.403 603.652 278.239 604.635 278.239C606.05 278.239 607.164 278.545 607.976 279.159C608.789 279.767 609.326 280.582 609.587 281.605ZM614.508 287.06L614.491 283.949H614.935L620.15 278.409H623.202L617.253 284.716H616.852L614.508 287.06ZM612.165 291.5V274.045H614.713V291.5H612.165ZM620.432 291.5L615.744 285.278L617.5 283.497L623.56 291.5H620.432Z" fill="white"/>
<rect x="143" y="264.5" width="185" height="59" rx="29.5" fill="#0357F0"/>
<path d="M188 286.889V294C188 294.235 187.906 294.462 187.738 294.628C187.571 294.795 187.344 294.889 187.107 294.889C186.87 294.889 186.643 294.795 186.476 294.628C186.308 294.462 186.214 294.235 186.214 294V289.034L177.025 298.184C176.942 298.267 176.843 298.332 176.735 298.377C176.627 298.422 176.51 298.445 176.393 298.445C176.276 298.445 176.16 298.422 176.051 298.377C175.943 298.332 175.844 298.267 175.761 298.184L171.929 294.368L164.525 301.74C164.357 301.906 164.13 302 163.893 302C163.656 302 163.429 301.906 163.262 301.74C163.094 301.573 163 301.347 163 301.111C163 300.875 163.094 300.649 163.262 300.482L171.297 292.482C171.38 292.399 171.479 292.334 171.587 292.289C171.695 292.244 171.812 292.221 171.929 292.221C172.046 292.221 172.162 292.244 172.271 292.289C172.379 292.334 172.478 292.399 172.561 292.482L176.393 296.299L184.952 287.778H179.964C179.728 287.778 179.501 287.684 179.333 287.517C179.166 287.351 179.072 287.125 179.072 286.889C179.072 286.653 179.166 286.427 179.333 286.26C179.501 286.094 179.728 286 179.964 286H187.107C187.344 286 187.571 286.094 187.738 286.26C187.906 286.427 188 286.653 188 286.889Z" fill="white"/>
<path d="M200.072 302.5V285.045H202.706V292.631H211.407V285.045H214.049V302.5H211.407V294.889H202.706V302.5H200.072ZM217.2 302.5V289.409H219.748V302.5H217.2ZM218.487 287.389C218.044 287.389 217.663 287.241 217.345 286.946C217.032 286.645 216.876 286.287 216.876 285.872C216.876 285.452 217.032 285.094 217.345 284.798C217.663 284.497 218.044 284.347 218.487 284.347C218.93 284.347 219.308 284.497 219.62 284.798C219.939 285.094 220.098 285.452 220.098 285.872C220.098 286.287 219.939 286.645 219.62 286.946C219.308 287.241 218.93 287.389 218.487 287.389ZM228.185 307.682C227.145 307.682 226.25 307.545 225.5 307.273C224.756 307 224.148 306.639 223.677 306.19C223.205 305.741 222.853 305.25 222.62 304.716L224.81 303.812C224.964 304.062 225.168 304.327 225.424 304.605C225.685 304.889 226.037 305.131 226.481 305.33C226.929 305.528 227.506 305.628 228.211 305.628C229.177 305.628 229.975 305.392 230.606 304.92C231.236 304.455 231.552 303.71 231.552 302.688V300.114H231.39C231.236 300.392 231.015 300.702 230.725 301.043C230.441 301.384 230.049 301.679 229.549 301.929C229.049 302.179 228.398 302.304 227.597 302.304C226.563 302.304 225.631 302.062 224.802 301.58C223.978 301.091 223.324 300.372 222.841 299.423C222.364 298.469 222.125 297.295 222.125 295.903C222.125 294.511 222.361 293.318 222.833 292.324C223.31 291.33 223.964 290.568 224.793 290.04C225.623 289.506 226.563 289.239 227.614 289.239C228.427 289.239 229.083 289.375 229.583 289.648C230.083 289.915 230.472 290.227 230.75 290.585C231.035 290.943 231.253 291.259 231.407 291.531H231.594V289.409H234.091V302.79C234.091 303.915 233.83 304.838 233.307 305.56C232.785 306.281 232.077 306.815 231.185 307.162C230.299 307.509 229.299 307.682 228.185 307.682ZM228.16 300.19C228.893 300.19 229.512 300.02 230.018 299.679C230.529 299.332 230.915 298.838 231.177 298.196C231.444 297.548 231.577 296.773 231.577 295.869C231.577 294.989 231.447 294.213 231.185 293.543C230.924 292.872 230.54 292.349 230.035 291.974C229.529 291.594 228.904 291.403 228.16 291.403C227.393 291.403 226.753 291.602 226.242 292C225.731 292.392 225.344 292.926 225.083 293.602C224.827 294.278 224.699 295.034 224.699 295.869C224.699 296.727 224.83 297.48 225.091 298.128C225.353 298.776 225.739 299.281 226.25 299.645C226.768 300.009 227.404 300.19 228.16 300.19ZM239.577 294.727V302.5H237.029V285.045H239.543V291.54H239.705C240.012 290.835 240.481 290.276 241.111 289.861C241.742 289.446 242.566 289.239 243.583 289.239C244.481 289.239 245.265 289.423 245.935 289.793C246.611 290.162 247.134 290.713 247.503 291.446C247.878 292.173 248.066 293.082 248.066 294.173V302.5H245.518V294.48C245.518 293.52 245.27 292.776 244.776 292.247C244.282 291.713 243.594 291.446 242.714 291.446C242.111 291.446 241.572 291.574 241.094 291.83C240.623 292.085 240.251 292.46 239.978 292.955C239.711 293.443 239.577 294.034 239.577 294.727ZM257.063 302.5V285.045H267.886V287.312H259.696V292.631H267.111V294.889H259.696V302.5H257.063ZM275.122 302.764C273.832 302.764 272.721 302.489 271.789 301.938C270.863 301.381 270.147 300.599 269.642 299.594C269.142 298.582 268.892 297.398 268.892 296.04C268.892 294.699 269.142 293.517 269.642 292.494C270.147 291.472 270.852 290.673 271.755 290.099C272.664 289.526 273.727 289.239 274.943 289.239C275.681 289.239 276.397 289.361 277.09 289.605C277.784 289.849 278.406 290.233 278.957 290.756C279.508 291.278 279.943 291.957 280.261 292.793C280.579 293.622 280.738 294.631 280.738 295.818V296.722H270.332V294.812H278.241C278.241 294.142 278.105 293.548 277.832 293.031C277.559 292.509 277.176 292.097 276.681 291.795C276.193 291.494 275.619 291.344 274.96 291.344C274.244 291.344 273.619 291.52 273.085 291.872C272.556 292.219 272.147 292.673 271.857 293.236C271.573 293.793 271.431 294.398 271.431 295.051V296.543C271.431 297.418 271.585 298.162 271.892 298.776C272.204 299.389 272.639 299.858 273.196 300.182C273.752 300.5 274.403 300.659 275.147 300.659C275.63 300.659 276.071 300.591 276.468 300.455C276.866 300.312 277.21 300.102 277.5 299.824C277.789 299.545 278.011 299.202 278.164 298.793L280.576 299.227C280.383 299.937 280.036 300.56 279.536 301.094C279.042 301.622 278.42 302.034 277.67 302.33C276.926 302.619 276.076 302.764 275.122 302.764ZM288.728 302.764C287.438 302.764 286.327 302.489 285.395 301.938C284.469 301.381 283.753 300.599 283.247 299.594C282.747 298.582 282.497 297.398 282.497 296.04C282.497 294.699 282.747 293.517 283.247 292.494C283.753 291.472 284.458 290.673 285.361 290.099C286.27 289.526 287.333 289.239 288.549 289.239C289.287 289.239 290.003 289.361 290.696 289.605C291.39 289.849 292.012 290.233 292.563 290.756C293.114 291.278 293.549 291.957 293.867 292.793C294.185 293.622 294.344 294.631 294.344 295.818V296.722H283.938V294.812H291.847C291.847 294.142 291.711 293.548 291.438 293.031C291.165 292.509 290.782 292.097 290.287 291.795C289.799 291.494 289.225 291.344 288.566 291.344C287.85 291.344 287.225 291.52 286.691 291.872C286.162 292.219 285.753 292.673 285.463 293.236C285.179 293.793 285.037 294.398 285.037 295.051V296.543C285.037 297.418 285.191 298.162 285.497 298.776C285.81 299.389 286.245 299.858 286.801 300.182C287.358 300.5 288.009 300.659 288.753 300.659C289.236 300.659 289.676 300.591 290.074 300.455C290.472 300.312 290.816 300.102 291.105 299.824C291.395 299.545 291.617 299.202 291.77 298.793L294.182 299.227C293.989 299.937 293.642 300.56 293.142 301.094C292.648 301.622 292.026 302.034 291.276 302.33C290.532 302.619 289.682 302.764 288.728 302.764ZM306.501 292.605L304.192 293.014C304.095 292.719 303.942 292.437 303.731 292.17C303.527 291.903 303.248 291.685 302.896 291.514C302.544 291.344 302.103 291.259 301.575 291.259C300.853 291.259 300.251 291.42 299.768 291.744C299.285 292.062 299.044 292.474 299.044 292.98C299.044 293.418 299.206 293.77 299.53 294.037C299.853 294.304 300.376 294.523 301.098 294.693L303.177 295.17C304.382 295.449 305.28 295.878 305.87 296.457C306.461 297.037 306.757 297.79 306.757 298.716C306.757 299.5 306.53 300.199 306.075 300.812C305.626 301.42 304.998 301.898 304.192 302.244C303.39 302.591 302.461 302.764 301.405 302.764C299.939 302.764 298.743 302.452 297.817 301.827C296.89 301.196 296.322 300.301 296.112 299.142L298.575 298.767C298.728 299.409 299.044 299.895 299.521 300.224C299.998 300.548 300.62 300.71 301.388 300.71C302.223 300.71 302.89 300.537 303.39 300.19C303.89 299.838 304.14 299.409 304.14 298.903C304.14 298.494 303.987 298.151 303.68 297.872C303.379 297.594 302.916 297.384 302.291 297.241L300.075 296.756C298.853 296.477 297.95 296.034 297.365 295.426C296.785 294.818 296.495 294.048 296.495 293.116C296.495 292.344 296.711 291.668 297.143 291.088C297.575 290.509 298.172 290.057 298.933 289.733C299.694 289.403 300.567 289.239 301.549 289.239C302.964 289.239 304.078 289.545 304.89 290.159C305.703 290.767 306.24 291.582 306.501 292.605Z" fill="white"/>
<rect x="456" y="44.5" width="224" height="60" rx="30" fill="#0357F0"/>
<path d="M488 64.5C485.627 64.5 483.307 65.2038 481.333 66.5224C479.36 67.8409 477.822 69.7151 476.913 71.9078C476.005 74.1005 475.768 76.5133 476.231 78.8411C476.694 81.1689 477.836 83.307 479.515 84.9853C481.193 86.6635 483.331 87.8064 485.659 88.2694C487.987 88.7324 490.399 88.4948 492.592 87.5865C494.785 86.6783 496.659 85.1402 497.978 83.1668C499.296 81.1935 500 78.8734 500 76.5C499.996 73.3185 498.731 70.2684 496.481 68.0187C494.232 65.7691 491.181 64.5036 488 64.5ZM488 86.5C486.022 86.5 484.089 85.9135 482.444 84.8147C480.8 83.7159 479.518 82.1541 478.761 80.3268C478.004 78.4996 477.806 76.4889 478.192 74.5491C478.578 72.6093 479.53 70.8275 480.929 69.4289C482.327 68.0304 484.109 67.078 486.049 66.6921C487.989 66.3063 490 66.5043 491.827 67.2612C493.654 68.0181 495.216 69.2998 496.315 70.9443C497.414 72.5888 498 74.5222 498 76.5C497.997 79.1512 496.942 81.6931 495.068 83.5678C493.193 85.4425 490.651 86.497 488 86.5ZM493.708 70.7925C493.8 70.8854 493.874 70.9957 493.925 71.1171C493.975 71.2385 494.001 71.3686 494.001 71.5C494.001 71.6314 493.975 71.7615 493.925 71.8829C493.874 72.0043 493.8 72.1146 493.708 72.2075L488.708 77.2075C488.615 77.3004 488.504 77.3741 488.383 77.4244C488.262 77.4747 488.131 77.5006 488 77.5006C487.869 77.5006 487.738 77.4747 487.617 77.4244C487.496 77.3741 487.385 77.3004 487.293 77.2075C487.2 77.1146 487.126 77.0043 487.076 76.8829C487.025 76.7615 486.999 76.6314 486.999 76.5C486.999 76.3686 487.025 76.2385 487.076 76.1171C487.126 75.9957 487.2 75.8854 487.293 75.7925L492.293 70.7925C492.385 70.6995 492.496 70.6258 492.617 70.5754C492.738 70.5251 492.869 70.4992 493 70.4992C493.131 70.4992 493.262 70.5251 493.383 70.5754C493.504 70.6258 493.615 70.6995 493.708 70.7925ZM484 61.5C484 61.2348 484.105 60.9804 484.293 60.7929C484.48 60.6054 484.735 60.5 485 60.5H491C491.265 60.5 491.52 60.6054 491.707 60.7929C491.895 60.9804 492 61.2348 492 61.5C492 61.7652 491.895 62.0196 491.707 62.2071C491.52 62.3946 491.265 62.5 491 62.5H485C484.735 62.5 484.48 62.3946 484.293 62.2071C484.105 62.0196 484 61.7652 484 61.5Z" fill="white"/>
<path d="M512.179 83V65.5455H514.812V73.1307H523.514V65.5455H526.156V83H523.514V75.3892H514.812V83H512.179ZM529.307 83V69.9091H531.855V83H529.307ZM530.594 67.8892C530.15 67.8892 529.77 67.7415 529.452 67.446C529.139 67.1449 528.983 66.7869 528.983 66.3722C528.983 65.9517 529.139 65.5937 529.452 65.2983C529.77 64.9972 530.15 64.8466 530.594 64.8466C531.037 64.8466 531.415 64.9972 531.727 65.2983C532.045 65.5937 532.204 65.9517 532.204 66.3722C532.204 66.7869 532.045 67.1449 531.727 67.446C531.415 67.7415 531.037 67.8892 530.594 67.8892ZM539.704 83.2557C538.647 83.2557 537.704 82.9858 536.874 82.446C536.05 81.9006 535.403 81.125 534.931 80.1193C534.465 79.108 534.232 77.8949 534.232 76.4801C534.232 75.0653 534.468 73.8551 534.94 72.8494C535.417 71.8437 536.07 71.0739 536.9 70.5398C537.729 70.0057 538.67 69.7386 539.721 69.7386C540.533 69.7386 541.187 69.875 541.681 70.1477C542.181 70.4148 542.567 70.7273 542.84 71.0852C543.119 71.4432 543.334 71.7585 543.488 72.0312H543.641V65.5455H546.19V83H543.701V80.9631H543.488C543.334 81.2415 543.113 81.5597 542.823 81.9176C542.539 82.2756 542.147 82.5881 541.647 82.8551C541.147 83.1222 540.499 83.2557 539.704 83.2557ZM540.266 81.0824C540.999 81.0824 541.619 80.8892 542.124 80.5028C542.636 80.1108 543.022 79.5682 543.283 78.875C543.55 78.1818 543.684 77.375 543.684 76.4545C543.684 75.5455 543.553 74.75 543.292 74.0682C543.03 73.3864 542.647 72.8551 542.141 72.4744C541.636 72.0937 541.011 71.9034 540.266 71.9034C539.499 71.9034 538.86 72.1023 538.349 72.5C537.837 72.8977 537.451 73.4403 537.19 74.1278C536.934 74.8153 536.806 75.5909 536.806 76.4545C536.806 77.3295 536.937 78.1165 537.198 78.8153C537.459 79.5142 537.846 80.0682 538.357 80.4773C538.874 80.8807 539.511 81.0824 540.266 81.0824ZM554.247 83.2557C553.19 83.2557 552.247 82.9858 551.418 82.446C550.594 81.9006 549.946 81.125 549.475 80.1193C549.009 79.108 548.776 77.8949 548.776 76.4801C548.776 75.0653 549.011 73.8551 549.483 72.8494C549.96 71.8437 550.614 71.0739 551.443 70.5398C552.273 70.0057 553.213 69.7386 554.264 69.7386C555.077 69.7386 555.73 69.875 556.225 70.1477C556.725 70.4148 557.111 70.7273 557.384 71.0852C557.662 71.4432 557.878 71.7585 558.031 72.0312H558.185V65.5455H560.733V83H558.244V80.9631H558.031C557.878 81.2415 557.656 81.5597 557.367 81.9176C557.082 82.2756 556.69 82.5881 556.19 82.8551C555.69 83.1222 555.043 83.2557 554.247 83.2557ZM554.81 81.0824C555.543 81.0824 556.162 80.8892 556.668 80.5028C557.179 80.1108 557.565 79.5682 557.827 78.875C558.094 78.1818 558.227 77.375 558.227 76.4545C558.227 75.5455 558.097 74.75 557.835 74.0682C557.574 73.3864 557.19 72.8551 556.685 72.4744C556.179 72.0937 555.554 71.9034 554.81 71.9034C554.043 71.9034 553.403 72.1023 552.892 72.5C552.381 72.8977 551.994 73.4403 551.733 74.1278C551.477 74.8153 551.35 75.5909 551.35 76.4545C551.35 77.3295 551.48 78.1165 551.742 78.8153C552.003 79.5142 552.389 80.0682 552.901 80.4773C553.418 80.8807 554.054 81.0824 554.81 81.0824ZM569.532 83.2642C568.242 83.2642 567.132 82.9886 566.2 82.4375C565.274 81.8807 564.558 81.0994 564.052 80.0938C563.552 79.0824 563.302 77.8977 563.302 76.5398C563.302 75.1989 563.552 74.017 564.052 72.9943C564.558 71.9716 565.262 71.1733 566.166 70.5994C567.075 70.0256 568.137 69.7386 569.353 69.7386C570.092 69.7386 570.808 69.8608 571.501 70.1051C572.194 70.3494 572.816 70.733 573.367 71.2557C573.919 71.7784 574.353 72.4574 574.671 73.2926C574.99 74.1222 575.149 75.1307 575.149 76.3182V77.2216H564.742V75.3125H572.651C572.651 74.642 572.515 74.0483 572.242 73.5312C571.97 73.0085 571.586 72.5966 571.092 72.2955C570.603 71.9943 570.029 71.8438 569.37 71.8438C568.654 71.8438 568.029 72.0199 567.495 72.3722C566.967 72.7187 566.558 73.1733 566.268 73.7358C565.984 74.2926 565.842 74.8977 565.842 75.5511V77.0426C565.842 77.9176 565.995 78.6619 566.302 79.2756C566.615 79.8892 567.049 80.358 567.606 80.6818C568.163 81 568.813 81.1591 569.558 81.1591C570.041 81.1591 570.481 81.0909 570.879 80.9545C571.276 80.8125 571.62 80.6023 571.91 80.3239C572.2 80.0455 572.421 79.7017 572.575 79.2926L574.987 79.7273C574.794 80.4375 574.447 81.0597 573.947 81.5938C573.453 82.1222 572.83 82.5341 572.08 82.8295C571.336 83.1193 570.487 83.2642 569.532 83.2642ZM580.044 75.2273V83H577.496V69.9091H579.942V72.0398H580.104C580.405 71.3466 580.877 70.7898 581.519 70.3693C582.166 69.9489 582.982 69.7386 583.965 69.7386C584.857 69.7386 585.638 69.9261 586.309 70.3011C586.979 70.6705 587.499 71.2216 587.868 71.9545C588.238 72.6875 588.422 73.5937 588.422 74.6733V83H585.874V74.9801C585.874 74.0312 585.627 73.2898 585.132 72.7557C584.638 72.2159 583.959 71.946 583.095 71.946C582.505 71.946 581.979 72.0739 581.519 72.3295C581.064 72.5852 580.703 72.9602 580.436 73.4545C580.175 73.9432 580.044 74.5341 580.044 75.2273ZM597.436 83V65.5455H600.069V73.1307H608.771V65.5455H611.413V83H608.771V75.3892H600.069V83H597.436ZM620.078 83.2642C618.851 83.2642 617.78 82.983 616.865 82.4205C615.95 81.858 615.24 81.071 614.734 80.0597C614.229 79.0483 613.976 77.8665 613.976 76.5142C613.976 75.1562 614.229 73.9687 614.734 72.9517C615.24 71.9347 615.95 71.1449 616.865 70.5824C617.78 70.0199 618.851 69.7386 620.078 69.7386C621.305 69.7386 622.376 70.0199 623.291 70.5824C624.206 71.1449 624.916 71.9347 625.422 72.9517C625.927 73.9687 626.18 75.1562 626.18 76.5142C626.18 77.8665 625.927 79.0483 625.422 80.0597C624.916 81.071 624.206 81.858 623.291 82.4205C622.376 82.983 621.305 83.2642 620.078 83.2642ZM620.087 81.125C620.882 81.125 621.541 80.9148 622.064 80.4943C622.587 80.0739 622.973 79.5142 623.223 78.8153C623.479 78.1165 623.606 77.3466 623.606 76.5057C623.606 75.6705 623.479 74.9034 623.223 74.2045C622.973 73.5 622.587 72.9347 622.064 72.5085C621.541 72.0824 620.882 71.8693 620.087 71.8693C619.285 71.8693 618.621 72.0824 618.092 72.5085C617.57 72.9347 617.18 73.5 616.925 74.2045C616.675 74.9034 616.55 75.6705 616.55 76.5057C616.55 77.3466 616.675 78.1165 616.925 78.8153C617.18 79.5142 617.57 80.0739 618.092 80.4943C618.621 80.9148 619.285 81.125 620.087 81.125ZM631.093 65.5455V83H628.545V65.5455H631.093ZM638.942 83.2557C637.885 83.2557 636.942 82.9858 636.112 82.446C635.289 81.9006 634.641 81.125 634.169 80.1193C633.703 79.108 633.47 77.8949 633.47 76.4801C633.47 75.0653 633.706 73.8551 634.178 72.8494C634.655 71.8437 635.308 71.0739 636.138 70.5398C636.967 70.0057 637.908 69.7386 638.959 69.7386C639.771 69.7386 640.425 69.875 640.919 70.1477C641.419 70.4148 641.806 70.7273 642.078 71.0852C642.357 71.4432 642.573 71.7585 642.726 72.0312H642.879V65.5455H645.428V83H642.939V80.9631H642.726C642.573 81.2415 642.351 81.5597 642.061 81.9176C641.777 82.2756 641.385 82.5881 640.885 82.8551C640.385 83.1222 639.737 83.2557 638.942 83.2557ZM639.504 81.0824C640.237 81.0824 640.857 80.8892 641.362 80.5028C641.874 80.1108 642.26 79.5682 642.521 78.875C642.789 78.1818 642.922 77.375 642.922 76.4545C642.922 75.5455 642.791 74.75 642.53 74.0682C642.269 73.3864 641.885 72.8551 641.379 72.4744C640.874 72.0937 640.249 71.9034 639.504 71.9034C638.737 71.9034 638.098 72.1023 637.587 72.5C637.075 72.8977 636.689 73.4403 636.428 74.1278C636.172 74.8153 636.044 75.5909 636.044 76.4545C636.044 77.3295 636.175 78.1165 636.436 78.8153C636.698 79.5142 637.084 80.0682 637.595 80.4773C638.112 80.8807 638.749 81.0824 639.504 81.0824ZM658.394 73.1051L656.085 73.5142C655.988 73.2187 655.835 72.9375 655.625 72.6705C655.42 72.4034 655.142 72.1847 654.789 72.0142C654.437 71.8437 653.997 71.7585 653.468 71.7585C652.747 71.7585 652.144 71.9205 651.661 72.2443C651.179 72.5625 650.937 72.9744 650.937 73.4801C650.937 73.9176 651.099 74.2699 651.423 74.5369C651.747 74.804 652.269 75.0227 652.991 75.1932L655.071 75.6705C656.275 75.9489 657.173 76.3778 657.764 76.9574C658.355 77.5369 658.65 78.2898 658.65 79.2159C658.65 80 658.423 80.6989 657.968 81.3125C657.519 81.9205 656.892 82.3977 656.085 82.7443C655.284 83.0909 654.355 83.2642 653.298 83.2642C651.832 83.2642 650.636 82.9517 649.71 82.3267C648.784 81.696 648.215 80.8011 648.005 79.642L650.468 79.267C650.622 79.9091 650.937 80.3949 651.414 80.7244C651.892 81.0483 652.514 81.2102 653.281 81.2102C654.116 81.2102 654.784 81.0369 655.284 80.6903C655.784 80.3381 656.034 79.9091 656.034 79.4034C656.034 78.9943 655.88 78.6506 655.573 78.3722C655.272 78.0937 654.809 77.8835 654.184 77.7415L651.968 77.2557C650.747 76.9773 649.843 76.5341 649.258 75.9261C648.679 75.3182 648.389 74.5483 648.389 73.6165C648.389 72.8437 648.605 72.1676 649.036 71.5881C649.468 71.0085 650.065 70.5568 650.826 70.233C651.588 69.9034 652.46 69.7386 653.443 69.7386C654.858 69.7386 655.971 70.0455 656.784 70.6591C657.596 71.267 658.133 72.0824 658.394 73.1051Z" fill="white"/>
<rect x="87" y="80.5" width="224" height="59" rx="29.5" fill="#0357F0"/>
<path d="M130.941 112.761C130.973 112.889 130.979 113.021 130.959 113.151C130.939 113.281 130.894 113.405 130.826 113.518C130.758 113.63 130.669 113.728 130.563 113.806C130.457 113.884 130.337 113.94 130.21 113.971L127.134 114.721L127.94 117.735C127.974 117.862 127.983 117.994 127.966 118.124C127.949 118.254 127.906 118.38 127.841 118.494C127.775 118.607 127.688 118.707 127.583 118.787C127.479 118.867 127.361 118.926 127.234 118.96C127.15 118.984 127.063 118.997 126.975 119C126.756 118.999 126.542 118.927 126.368 118.793C126.194 118.659 126.068 118.471 126.012 118.258L125.048 114.659L119.984 111.732V117.586L122.688 120.292C122.781 120.385 122.855 120.495 122.905 120.617C122.955 120.738 122.981 120.868 122.981 120.999C122.981 121.131 122.955 121.261 122.905 121.382C122.855 121.504 122.781 121.614 122.688 121.707C122.596 121.8 122.486 121.874 122.364 121.924C122.243 121.974 122.113 122 121.982 122C121.851 122 121.721 121.974 121.599 121.924C121.478 121.874 121.368 121.8 121.275 121.707L118.986 119.413L116.696 121.707C116.603 121.8 116.493 121.874 116.372 121.924C116.251 121.974 116.121 122 115.99 122C115.858 122 115.729 121.974 115.607 121.924C115.486 121.874 115.376 121.8 115.283 121.707C115.19 121.614 115.117 121.504 115.066 121.382C115.016 121.261 114.99 121.131 114.99 120.999C114.99 120.868 115.016 120.738 115.066 120.617C115.117 120.495 115.19 120.385 115.283 120.292L117.987 117.586V111.732L112.925 114.659L111.961 118.258C111.904 118.471 111.779 118.659 111.604 118.793C111.43 118.927 111.216 119 110.996 119C110.909 118.999 110.821 118.988 110.737 118.966C110.61 118.932 110.491 118.873 110.387 118.793C110.283 118.713 110.195 118.614 110.13 118.5C110.064 118.386 110.022 118.261 110.004 118.13C109.987 118 109.996 117.868 110.03 117.741L110.836 114.727L107.76 113.977C107.503 113.914 107.282 113.751 107.144 113.524C107.007 113.297 106.966 113.025 107.029 112.767C107.092 112.51 107.255 112.288 107.482 112.151C107.708 112.013 107.98 111.972 108.237 112.035L111.914 112.939L116.988 110L111.915 107.068L108.239 107.971C108.161 107.991 108.08 108 108 108C107.756 108 107.52 107.911 107.337 107.749C107.154 107.587 107.037 107.363 107.008 107.12C106.979 106.878 107.039 106.633 107.178 106.431C107.317 106.23 107.524 106.087 107.762 106.029L110.838 105.279L110.031 102.259C109.963 102.003 109.999 101.73 110.131 101.5C110.264 101.27 110.482 101.103 110.738 101.034C110.994 100.966 111.266 101.002 111.496 101.134C111.725 101.267 111.893 101.485 111.961 101.742L112.925 105.341L117.987 108.268V102.414L115.283 99.708C115.096 99.5203 114.99 99.2659 114.99 99.0005C114.99 98.8691 115.016 98.739 115.066 98.6176C115.117 98.4962 115.19 98.3859 115.283 98.293C115.376 98.2001 115.486 98.1264 115.607 98.0762C115.729 98.0259 115.858 98 115.99 98C116.255 98 116.509 98.1054 116.696 98.293L118.986 100.587L121.275 98.293C121.463 98.1054 121.717 98 121.982 98C122.247 98 122.501 98.1054 122.688 98.293C122.876 98.4807 122.981 98.7352 122.981 99.0005C122.981 99.2659 122.876 99.5203 122.688 99.708L119.984 102.414V108.268L125.047 105.341L126.01 101.742C126.079 101.485 126.246 101.267 126.476 101.134C126.705 101.002 126.978 100.966 127.234 101.034C127.49 101.103 127.708 101.27 127.84 101.5C127.973 101.73 128.009 102.003 127.94 102.259L127.134 105.273L130.21 106.023C130.454 106.075 130.669 106.216 130.814 106.419C130.959 106.623 131.023 106.873 130.993 107.12C130.963 107.368 130.842 107.596 130.653 107.759C130.464 107.921 130.221 108.008 129.971 108C129.891 108 129.811 107.991 129.733 107.971L126.057 107.068L120.983 110L126.057 112.932L129.733 112.029C129.86 111.997 129.993 111.991 130.122 112.011C130.252 112.031 130.377 112.076 130.489 112.144C130.601 112.212 130.699 112.302 130.776 112.408C130.854 112.513 130.91 112.634 130.941 112.761Z" fill="white"/>
<path d="M143.308 118.5V101.045H154.131V103.312H145.941V108.631H153.356V110.889H145.941V118.5H143.308ZM156.522 118.5V105.409H158.985V107.489H159.121C159.36 106.784 159.78 106.23 160.382 105.827C160.99 105.418 161.678 105.213 162.445 105.213C162.604 105.213 162.791 105.219 163.007 105.23C163.229 105.241 163.402 105.256 163.527 105.273V107.71C163.425 107.682 163.243 107.651 162.982 107.616C162.72 107.577 162.459 107.557 162.198 107.557C161.595 107.557 161.058 107.685 160.587 107.94C160.121 108.19 159.752 108.54 159.479 108.989C159.206 109.432 159.07 109.937 159.07 110.506V118.5H156.522ZM170.298 118.764C169.071 118.764 168 118.483 167.085 117.92C166.17 117.358 165.46 116.571 164.954 115.56C164.448 114.548 164.196 113.366 164.196 112.014C164.196 110.656 164.448 109.469 164.954 108.452C165.46 107.435 166.17 106.645 167.085 106.082C168 105.52 169.071 105.239 170.298 105.239C171.525 105.239 172.596 105.52 173.511 106.082C174.426 106.645 175.136 107.435 175.642 108.452C176.147 109.469 176.4 110.656 176.4 112.014C176.4 113.366 176.147 114.548 175.642 115.56C175.136 116.571 174.426 117.358 173.511 117.92C172.596 118.483 171.525 118.764 170.298 118.764ZM170.306 116.625C171.102 116.625 171.761 116.415 172.284 115.994C172.806 115.574 173.193 115.014 173.443 114.315C173.698 113.616 173.826 112.847 173.826 112.006C173.826 111.17 173.698 110.403 173.443 109.705C173.193 109 172.806 108.435 172.284 108.009C171.761 107.582 171.102 107.369 170.306 107.369C169.505 107.369 168.841 107.582 168.312 108.009C167.789 108.435 167.4 109 167.144 109.705C166.894 110.403 166.769 111.17 166.769 112.006C166.769 112.847 166.894 113.616 167.144 114.315C167.4 115.014 167.789 115.574 168.312 115.994C168.841 116.415 169.505 116.625 170.306 116.625ZM178.492 118.5V116.753L185.583 107.744V107.625H178.722V105.409H188.762V107.267L181.944 116.165V116.284H189V118.5H178.492ZM196.794 118.764C195.504 118.764 194.393 118.489 193.461 117.938C192.535 117.381 191.819 116.599 191.314 115.594C190.814 114.582 190.564 113.398 190.564 112.04C190.564 110.699 190.814 109.517 191.314 108.494C191.819 107.472 192.524 106.673 193.427 106.099C194.336 105.526 195.399 105.239 196.615 105.239C197.354 105.239 198.069 105.361 198.763 105.605C199.456 105.849 200.078 106.233 200.629 106.756C201.18 107.278 201.615 107.957 201.933 108.793C202.251 109.622 202.41 110.631 202.41 111.818V112.722H192.004V110.812H199.913C199.913 110.142 199.777 109.548 199.504 109.031C199.231 108.509 198.848 108.097 198.354 107.795C197.865 107.494 197.291 107.344 196.632 107.344C195.916 107.344 195.291 107.52 194.757 107.872C194.229 108.219 193.819 108.673 193.53 109.236C193.246 109.793 193.104 110.398 193.104 111.051V112.543C193.104 113.418 193.257 114.162 193.564 114.776C193.876 115.389 194.311 115.858 194.868 116.182C195.425 116.5 196.075 116.659 196.819 116.659C197.302 116.659 197.743 116.591 198.14 116.455C198.538 116.312 198.882 116.102 199.172 115.824C199.461 115.545 199.683 115.202 199.836 114.793L202.248 115.227C202.055 115.937 201.709 116.56 201.209 117.094C200.714 117.622 200.092 118.034 199.342 118.33C198.598 118.619 197.748 118.764 196.794 118.764ZM207.306 110.727V118.5H204.758V105.409H207.204V107.54H207.366C207.667 106.847 208.138 106.29 208.78 105.869C209.428 105.449 210.244 105.239 211.227 105.239C212.119 105.239 212.9 105.426 213.57 105.801C214.241 106.17 214.761 106.722 215.13 107.455C215.499 108.187 215.684 109.094 215.684 110.173V118.5H213.136V110.48C213.136 109.531 212.888 108.79 212.394 108.256C211.9 107.716 211.221 107.446 210.357 107.446C209.766 107.446 209.241 107.574 208.78 107.83C208.326 108.085 207.965 108.46 207.698 108.955C207.437 109.443 207.306 110.034 207.306 110.727ZM224.698 118.5V101.045H235.521V103.312H227.331V108.631H234.746V110.889H227.331V118.5H224.698ZM245.548 113.071V105.409H248.105V118.5H245.599V116.233H245.463C245.162 116.932 244.679 117.514 244.014 117.98C243.355 118.44 242.534 118.67 241.551 118.67C240.71 118.67 239.965 118.486 239.318 118.116C238.676 117.741 238.17 117.188 237.801 116.455C237.437 115.722 237.255 114.815 237.255 113.736V105.409H239.804V113.429C239.804 114.321 240.051 115.031 240.545 115.56C241.039 116.088 241.681 116.352 242.471 116.352C242.948 116.352 243.423 116.233 243.894 115.994C244.372 115.756 244.767 115.395 245.079 114.912C245.397 114.429 245.554 113.815 245.548 113.071ZM253.597 110.727V118.5H251.049V105.409H253.495V107.54H253.657C253.958 106.847 254.429 106.29 255.071 105.869C255.719 105.449 256.534 105.239 257.517 105.239C258.409 105.239 259.191 105.426 259.861 105.801C260.532 106.17 261.052 106.722 261.421 107.455C261.79 108.187 261.975 109.094 261.975 110.173V118.5H259.427V110.48C259.427 109.531 259.179 108.79 258.685 108.256C258.191 107.716 257.512 107.446 256.648 107.446C256.057 107.446 255.532 107.574 255.071 107.83C254.617 108.085 254.256 108.46 253.989 108.955C253.728 109.443 253.597 110.034 253.597 110.727ZM269.813 118.756C268.756 118.756 267.813 118.486 266.983 117.946C266.16 117.401 265.512 116.625 265.04 115.619C264.574 114.608 264.341 113.395 264.341 111.98C264.341 110.565 264.577 109.355 265.049 108.349C265.526 107.344 266.179 106.574 267.009 106.04C267.839 105.506 268.779 105.239 269.83 105.239C270.643 105.239 271.296 105.375 271.79 105.648C272.29 105.915 272.677 106.227 272.949 106.585C273.228 106.943 273.444 107.259 273.597 107.531H273.751V101.045H276.299V118.5H273.81V116.463H273.597C273.444 116.741 273.222 117.06 272.932 117.418C272.648 117.776 272.256 118.088 271.756 118.355C271.256 118.622 270.608 118.756 269.813 118.756ZM270.376 116.582C271.108 116.582 271.728 116.389 272.233 116.003C272.745 115.611 273.131 115.068 273.393 114.375C273.66 113.682 273.793 112.875 273.793 111.955C273.793 111.045 273.662 110.25 273.401 109.568C273.14 108.886 272.756 108.355 272.251 107.974C271.745 107.594 271.12 107.403 270.376 107.403C269.608 107.403 268.969 107.602 268.458 108C267.947 108.398 267.56 108.94 267.299 109.628C267.043 110.315 266.915 111.091 266.915 111.955C266.915 112.83 267.046 113.616 267.307 114.315C267.569 115.014 267.955 115.568 268.466 115.977C268.983 116.381 269.62 116.582 270.376 116.582ZM289.266 108.605L286.956 109.014C286.859 108.719 286.706 108.437 286.496 108.17C286.291 107.903 286.013 107.685 285.66 107.514C285.308 107.344 284.868 107.259 284.339 107.259C283.618 107.259 283.016 107.42 282.533 107.744C282.05 108.062 281.808 108.474 281.808 108.98C281.808 109.418 281.97 109.77 282.294 110.037C282.618 110.304 283.141 110.523 283.862 110.693L285.942 111.17C287.146 111.449 288.044 111.878 288.635 112.457C289.226 113.037 289.521 113.79 289.521 114.716C289.521 115.5 289.294 116.199 288.839 116.812C288.391 117.42 287.763 117.898 286.956 118.244C286.155 118.591 285.226 118.764 284.169 118.764C282.703 118.764 281.507 118.452 280.581 117.827C279.655 117.196 279.087 116.301 278.876 115.142L281.339 114.767C281.493 115.409 281.808 115.895 282.285 116.224C282.763 116.548 283.385 116.71 284.152 116.71C284.987 116.71 285.655 116.537 286.155 116.19C286.655 115.838 286.905 115.409 286.905 114.903C286.905 114.494 286.751 114.151 286.445 113.872C286.143 113.594 285.68 113.384 285.055 113.241L282.839 112.756C281.618 112.477 280.714 112.034 280.129 111.426C279.55 110.818 279.26 110.048 279.26 109.116C279.26 108.344 279.476 107.668 279.908 107.088C280.339 106.509 280.936 106.057 281.697 105.733C282.459 105.403 283.331 105.239 284.314 105.239C285.729 105.239 286.842 105.545 287.655 106.159C288.467 106.767 289.004 107.582 289.266 108.605Z" fill="white"/>
</svg>
