<svg width="768" height="369" viewBox="0 0 768 369" fill="none" xmlns="http://www.w3.org/2000/svg">
<rect width="768" height="369" rx="14" fill="white"/>
<circle cx="384" cy="184.5" r="160" stroke="#D9D9D9" stroke-width="1.5" stroke-dasharray="9 9"/>
<circle cx="384" cy="184.5" r="120" stroke="#D9D9D9" stroke-width="1.5" stroke-dasharray="9 9"/>
<circle cx="384" cy="184.5" r="80" stroke="#D9D9D9" stroke-width="1.5" stroke-dasharray="9 9"/>
<g filter="url(#filter0_i_1_3717)">
<rect x="304" y="72.4912" width="46" height="46" rx="23" transform="rotate(-11 304 72.4912)" fill="#0357F0"/>
<path d="M340.27 80.7377C339.163 79.6307 337.662 79.0089 336.096 79.0088C334.531 79.0088 333.029 79.6307 331.922 80.7377L320.673 91.9859C319.589 93.0976 318.987 94.5916 318.997 96.1442C319.007 97.6968 319.628 99.183 320.726 100.281C321.824 101.379 323.31 102 324.863 102.009C326.415 102.019 327.909 101.417 329.021 100.333L340.271 89.0844C341.376 87.9766 341.997 86.4756 341.997 84.9108C341.996 83.3461 341.375 81.8452 340.27 80.7377ZM327.767 99.0792C326.993 99.8537 325.942 100.289 324.847 100.289C323.752 100.289 322.701 99.8541 321.927 99.0797C321.152 98.3053 320.717 97.2549 320.717 96.1597C320.717 95.0644 321.152 94.014 321.926 93.2394L326.924 88.2421L332.765 94.0818L327.767 99.0792ZM339.017 87.8309L334.017 92.8283L328.178 86.9886L333.177 81.9912C333.954 81.2317 335 80.8093 336.087 80.8157C337.174 80.822 338.214 81.2566 338.983 82.0251C339.751 82.7937 340.186 83.8342 340.192 84.9211C340.198 86.0079 339.776 87.0535 339.017 87.8309ZM337.306 85.4746C337.389 85.557 337.454 85.6548 337.499 85.7624C337.543 85.8701 337.566 85.9854 337.566 86.1019C337.566 86.2185 337.543 86.3338 337.499 86.4415C337.454 86.5491 337.389 86.6469 337.306 86.7293L334.646 89.3892C334.564 89.4715 334.466 89.5368 334.359 89.5813C334.251 89.6258 334.136 89.6487 334.019 89.6486C333.903 89.6486 333.788 89.6256 333.68 89.581C333.572 89.5364 333.475 89.471 333.392 89.3886C333.31 89.3063 333.245 89.2085 333.2 89.1009C333.156 88.9933 333.133 88.8779 333.133 88.7615C333.133 88.645 333.156 88.5297 333.201 88.4222C333.245 88.3146 333.311 88.2169 333.393 88.1346L336.053 85.4746C336.219 85.3085 336.445 85.2151 336.68 85.2151C336.915 85.2152 337.14 85.3085 337.306 85.4746Z" fill="white"/>
</g>
<path d="M226.312 211.059C220.581 177.765 225.569 143.512 240.557 113.236C255.545 82.96 279.759 58.2247 309.71 42.5955C339.66 26.9663 373.799 21.2504 407.207 26.2716C440.615 31.2929 471.565 46.792 495.598 70.5349L383.5 184L226.312 211.059Z" fill="url(#paint0_linear_1_3717)"/>
<circle cx="384" cy="184.5" r="25" fill="#ACCAFF"/>
<path d="M384 184L495.5 70.5" stroke="#0357F0" stroke-width="2"/>
<circle cx="384" cy="184.5" r="12" fill="#0357F0"/>
<g filter="url(#filter1_i_1_3717)">
<rect x="264" y="235.491" width="46" height="46" rx="23" transform="rotate(-11 264 235.491)" fill="#0357F0"/>
<path d="M299.159 253.104L279.807 256.865C279.38 256.948 279.002 257.198 278.759 257.559C278.515 257.92 278.425 258.364 278.508 258.791L279.135 262.017C279.218 262.444 279.468 262.822 279.829 263.065C280.19 263.309 280.633 263.399 281.061 263.316L300.413 259.554C300.841 259.471 301.218 259.221 301.462 258.86C301.705 258.499 301.796 258.056 301.712 257.628L301.085 254.403C301.002 253.975 300.753 253.598 300.391 253.354C300.03 253.111 299.587 253.02 299.159 253.104ZM280.121 258.478L284.959 257.537L285.586 260.763L280.748 261.703L280.121 258.478ZM300.1 257.942L287.198 260.449L286.571 257.224L299.473 254.716L300.1 257.942ZM295.51 246.708C296.038 245.117 295.833 244.375 295.663 244.073C295.587 243.928 295.467 243.81 295.322 243.736C295.216 243.712 295.116 243.667 295.028 243.605C294.94 243.543 294.865 243.463 294.807 243.372C294.749 243.28 294.71 243.178 294.692 243.071C294.674 242.965 294.678 242.855 294.702 242.75C294.726 242.645 294.771 242.545 294.834 242.457C294.897 242.369 294.976 242.294 295.068 242.237C295.16 242.18 295.262 242.141 295.369 242.124C295.476 242.106 295.585 242.11 295.69 242.135C295.988 242.22 296.266 242.364 296.507 242.559C296.749 242.753 296.948 242.994 297.095 243.268C297.632 244.224 297.624 245.555 297.069 247.225C296.542 248.816 296.747 249.56 296.916 249.861C296.993 250.006 297.112 250.123 297.258 250.198C297.363 250.222 297.463 250.266 297.551 250.329C297.64 250.391 297.715 250.471 297.773 250.562C297.83 250.654 297.869 250.756 297.887 250.862C297.905 250.969 297.902 251.078 297.878 251.184C297.853 251.289 297.809 251.389 297.746 251.477C297.683 251.565 297.603 251.64 297.511 251.697C297.419 251.754 297.317 251.792 297.21 251.81C297.104 251.828 296.994 251.824 296.889 251.799C296.591 251.714 296.313 251.569 296.072 251.375C295.831 251.18 295.631 250.939 295.485 250.666C294.951 249.709 294.958 248.376 295.51 246.708ZM291.479 247.492C292.006 245.901 291.801 245.158 291.632 244.857C291.555 244.712 291.436 244.594 291.29 244.519C291.184 244.496 291.085 244.451 290.996 244.389C290.908 244.326 290.833 244.247 290.775 244.155C290.718 244.064 290.679 243.962 290.661 243.855C290.643 243.748 290.646 243.639 290.67 243.534C290.694 243.428 290.739 243.329 290.802 243.241C290.865 243.153 290.945 243.078 291.037 243.021C291.128 242.963 291.231 242.925 291.337 242.907C291.444 242.89 291.553 242.894 291.659 242.918C291.957 243.004 292.234 243.148 292.476 243.343C292.717 243.537 292.917 243.778 293.063 244.051C293.6 245.008 293.592 246.339 293.037 248.009C292.51 249.6 292.715 250.344 292.884 250.644C292.961 250.789 293.08 250.907 293.226 250.982C293.332 251.006 293.431 251.05 293.52 251.112C293.608 251.175 293.683 251.254 293.741 251.346C293.798 251.437 293.837 251.539 293.855 251.646C293.873 251.753 293.87 251.862 293.846 251.967C293.822 252.073 293.777 252.173 293.714 252.261C293.651 252.349 293.571 252.423 293.48 252.481C293.388 252.538 293.285 252.576 293.179 252.594C293.072 252.611 292.963 252.608 292.857 252.583C292.559 252.497 292.282 252.353 292.04 252.159C291.799 251.964 291.6 251.723 291.453 251.45C290.919 250.493 290.926 249.16 291.479 247.492Z" fill="white"/>
</g>
<g filter="url(#filter2_i_1_3717)">
<rect x="474" y="155.491" width="46" height="46" rx="23" transform="rotate(-11 474 155.491)" fill="#0357F0"/>
<path d="M511.251 165.019C511.155 164.94 511.042 164.884 510.921 164.853C510.8 164.823 510.674 164.82 510.551 164.844L493.691 168.121L492.377 164.751C492.304 164.565 492.169 164.41 491.994 164.314C491.819 164.218 491.617 164.186 491.421 164.224L488.836 164.726C488.614 164.769 488.419 164.899 488.292 165.086C488.166 165.273 488.119 165.503 488.163 165.725C488.206 165.947 488.335 166.142 488.522 166.268C488.71 166.395 488.939 166.441 489.161 166.398L491.042 166.033L496.564 180.176C496.727 180.595 496.998 180.964 497.35 181.245C497.027 181.691 496.833 182.218 496.791 182.767C496.748 183.316 496.859 183.866 497.11 184.356C497.361 184.846 497.743 185.256 498.214 185.543C498.684 185.829 499.225 185.979 499.775 185.977C500.326 185.974 500.865 185.82 501.333 185.53C501.801 185.24 502.18 184.826 502.427 184.334C502.674 183.841 502.78 183.291 502.733 182.742C502.687 182.193 502.489 181.668 502.162 181.225L506.909 180.303C506.798 180.731 506.784 181.178 506.869 181.612C506.982 182.191 507.263 182.723 507.678 183.142C508.094 183.56 508.623 183.847 509.201 183.964C509.779 184.082 510.379 184.025 510.924 183.802C511.47 183.579 511.937 183.199 512.267 182.71C512.597 182.221 512.774 181.646 512.777 181.056C512.779 180.466 512.607 179.889 512.282 179.398C511.956 178.906 511.492 178.522 510.948 178.294C510.405 178.066 509.806 178.004 509.227 178.117L499.107 180.084C498.911 180.122 498.708 180.09 498.533 179.994C498.359 179.897 498.223 179.743 498.151 179.557L497.465 177.8L509.589 175.443C510.176 175.329 510.705 175.012 511.083 174.548C511.46 174.084 511.663 173.502 511.656 172.903L511.569 165.669C511.567 165.544 511.537 165.421 511.482 165.308C511.428 165.196 511.349 165.097 511.251 165.019ZM501.016 182.749C501.065 182.998 501.038 183.254 500.941 183.487C500.843 183.72 500.678 183.919 500.467 184.059C500.257 184.198 500.009 184.272 499.757 184.271C499.504 184.27 499.257 184.194 499.048 184.052C498.838 183.911 498.675 183.711 498.58 183.477C498.484 183.243 498.46 182.986 498.51 182.739C498.561 182.491 498.683 182.264 498.863 182.086C499.042 181.908 499.27 181.787 499.519 181.739C499.851 181.674 500.196 181.745 500.477 181.934C500.758 182.124 500.952 182.417 501.016 182.749ZM511.05 180.799C511.098 181.047 511.072 181.304 510.974 181.537C510.876 181.77 510.712 181.969 510.501 182.108C510.29 182.248 510.043 182.322 509.79 182.321C509.537 182.319 509.291 182.243 509.081 182.102C508.872 181.961 508.709 181.761 508.613 181.527C508.517 181.293 508.493 181.036 508.544 180.788C508.594 180.541 508.717 180.314 508.896 180.136C509.076 179.958 509.304 179.837 509.552 179.789C509.884 179.724 510.229 179.794 510.51 179.984C510.791 180.173 510.985 180.467 511.05 180.799ZM509.953 172.924C509.955 173.124 509.887 173.319 509.761 173.474C509.634 173.629 509.457 173.734 509.261 173.771L496.836 176.187L494.32 169.734L509.874 166.711L509.953 172.924Z" fill="white"/>
</g>
<defs>
<filter id="filter0_i_1_3717" x="304" y="63.7141" width="53.9321" height="53.9319" filterUnits="userSpaceOnUse" color-interpolation-filters="sRGB">
<feFlood flood-opacity="0" result="BackgroundImageFix"/>
<feBlend mode="normal" in="SourceGraphic" in2="BackgroundImageFix" result="shape"/>
<feColorMatrix in="SourceAlpha" type="matrix" values="0 0 0 0 0 0 0 0 0 0 0 0 0 0 0 0 0 0 127 0" result="hardAlpha"/>
<feMorphology radius="8" operator="erode" in="SourceAlpha" result="effect1_innerShadow_1_3717"/>
<feOffset/>
<feGaussianBlur stdDeviation="4"/>
<feComposite in2="hardAlpha" operator="arithmetic" k2="-1" k3="1"/>
<feColorMatrix type="matrix" values="0 0 0 0 1 0 0 0 0 1 0 0 0 0 1 0 0 0 0.4 0"/>
<feBlend mode="normal" in2="shape" result="effect1_innerShadow_1_3717"/>
</filter>
<filter id="filter1_i_1_3717" x="264" y="226.714" width="53.9321" height="53.9319" filterUnits="userSpaceOnUse" color-interpolation-filters="sRGB">
<feFlood flood-opacity="0" result="BackgroundImageFix"/>
<feBlend mode="normal" in="SourceGraphic" in2="BackgroundImageFix" result="shape"/>
<feColorMatrix in="SourceAlpha" type="matrix" values="0 0 0 0 0 0 0 0 0 0 0 0 0 0 0 0 0 0 127 0" result="hardAlpha"/>
<feMorphology radius="8" operator="erode" in="SourceAlpha" result="effect1_innerShadow_1_3717"/>
<feOffset/>
<feGaussianBlur stdDeviation="4"/>
<feComposite in2="hardAlpha" operator="arithmetic" k2="-1" k3="1"/>
<feColorMatrix type="matrix" values="0 0 0 0 1 0 0 0 0 1 0 0 0 0 1 0 0 0 0.4 0"/>
<feBlend mode="normal" in2="shape" result="effect1_innerShadow_1_3717"/>
</filter>
<filter id="filter2_i_1_3717" x="474" y="146.714" width="53.9321" height="53.9319" filterUnits="userSpaceOnUse" color-interpolation-filters="sRGB">
<feFlood flood-opacity="0" result="BackgroundImageFix"/>
<feBlend mode="normal" in="SourceGraphic" in2="BackgroundImageFix" result="shape"/>
<feColorMatrix in="SourceAlpha" type="matrix" values="0 0 0 0 0 0 0 0 0 0 0 0 0 0 0 0 0 0 127 0" result="hardAlpha"/>
<feMorphology radius="8" operator="erode" in="SourceAlpha" result="effect1_innerShadow_1_3717"/>
<feOffset/>
<feGaussianBlur stdDeviation="4"/>
<feComposite in2="hardAlpha" operator="arithmetic" k2="-1" k3="1"/>
<feColorMatrix type="matrix" values="0 0 0 0 1 0 0 0 0 1 0 0 0 0 1 0 0 0 0.4 0"/>
<feBlend mode="normal" in2="shape" result="effect1_innerShadow_1_3717"/>
</filter>
<linearGradient id="paint0_linear_1_3717" x1="504.62" y1="66.3687" x2="305.245" y2="157.583" gradientUnits="userSpaceOnUse">
<stop stop-color="#0357F0"/>
<stop offset="1" stop-color="white" stop-opacity="0"/>
</linearGradient>
</defs>
</svg>
