<svg width="768" height="369" viewBox="0 0 768 369" fill="none" xmlns="http://www.w3.org/2000/svg">
<g clip-path="url(#clip0_1_3691)">
<rect width="768" height="369" rx="14" fill="white"/>
<path d="M257 277.5V320.5" stroke="url(#paint0_linear_1_3691)" stroke-width="2"/>
<path d="M305 219.5V320.5" stroke="url(#paint1_linear_1_3691)" stroke-width="2"/>
<path d="M353 217.5V320.5" stroke="url(#paint2_linear_1_3691)" stroke-width="2"/>
<path d="M401 179.5V320.5" stroke="url(#paint3_linear_1_3691)" stroke-width="2"/>
<path d="M449 148.5V320.5" stroke="url(#paint4_linear_1_3691)" stroke-width="2"/>
<path d="M497 157.5V320.5" stroke="url(#paint5_linear_1_3691)" stroke-width="2"/>
<path d="M545 187.5V320.5" stroke="url(#paint6_linear_1_3691)" stroke-width="2"/>
<path d="M593 125.5V320.5" stroke="url(#paint7_linear_1_3691)" stroke-width="2"/>
<path d="M231.272 298.471H136V375H631V69.5L553.087 181.099C544.927 192.787 527.977 193.748 518.548 183.057L495.331 156.734C491.155 151.998 485.145 149.286 478.832 149.286H430.857C423.351 149.286 416.363 153.112 412.321 159.436L380.329 209.479C376.286 215.803 369.298 219.629 361.793 219.629H304.217C296.562 219.629 289.457 223.609 285.458 230.137L250.031 287.964C246.032 294.491 238.927 298.471 231.272 298.471Z" fill="url(#paint8_linear_1_3691)"/>
<path d="M632.97 69.1539C632.779 68.066 631.742 67.339 630.654 67.5302L612.925 70.6449C611.838 70.836 611.111 71.8729 611.302 72.9608C611.493 74.0487 612.53 74.7757 613.618 74.5845L629.376 71.8159L632.145 87.5745C632.336 88.6625 633.373 89.3894 634.461 89.1983C635.549 89.0072 636.276 87.9703 636.085 86.8824L632.97 69.1539ZM518.582 182.614L517.085 183.94L518.582 182.614ZM495.328 156.36L493.831 157.687L495.328 156.36ZM412.316 159.062L410.633 157.981L412.316 159.062ZM380.333 208.878L378.65 207.798L380.333 208.878ZM285.452 229.465L283.749 228.417L285.452 229.465ZM250.037 287.028L248.333 285.98L250.037 287.028ZM136 297.5V299.5H231.299V297.5V295.5H136V297.5ZM250.037 287.028L251.74 288.076L287.156 230.513L285.452 229.465L283.749 228.417L248.333 285.98L250.037 287.028ZM304.19 218.993V220.993H361.82V218.993V216.993H304.19V218.993ZM380.333 208.878L382.016 209.959L413.999 160.142L412.316 159.062L410.633 157.981L378.65 207.798L380.333 208.878ZM430.829 148.947V150.947H478.86V148.947V146.947H430.829V148.947ZM495.328 156.36L493.831 157.687L517.085 183.94L518.582 182.614L520.079 181.288L496.826 155.034L495.328 156.36ZM553.065 180.657L554.702 181.805L632.638 70.6482L631 69.5L629.362 68.3518L551.427 179.509L553.065 180.657ZM518.582 182.614L517.085 183.94C527.369 195.55 545.799 194.504 554.702 181.805L553.065 180.657L551.427 179.509C544.007 190.091 528.649 190.963 520.079 181.288L518.582 182.614ZM478.86 148.947V150.947C484.585 150.947 490.035 153.401 493.831 157.687L495.328 156.36L496.826 155.034C492.27 149.892 485.73 146.947 478.86 146.947V148.947ZM412.316 159.062L413.999 160.142C417.678 154.412 424.02 150.947 430.829 150.947V148.947V146.947C422.658 146.947 415.048 151.105 410.633 157.981L412.316 159.062ZM361.82 218.993V220.993C369.992 220.993 377.602 216.835 382.016 209.959L380.333 208.878L378.65 207.798C374.972 213.528 368.63 216.993 361.82 216.993V218.993ZM285.452 229.465L287.156 230.513C290.796 224.597 297.244 220.993 304.19 220.993V218.993V216.993C295.855 216.993 288.117 221.317 283.749 228.417L285.452 229.465ZM231.299 297.5V299.5C239.634 299.5 247.373 295.175 251.74 288.076L250.037 287.028L248.333 285.98C244.694 291.896 238.245 295.5 231.299 295.5V297.5Z" fill="#0357F0"/>
<circle cx="420.5" cy="150" r="7.5" fill="white" stroke="#0357F0" stroke-width="4"/>
<rect x="136.5" y="32" width="141" height="80" rx="11.5" fill="white"/>
<rect x="136.5" y="32" width="141" height="80" rx="11.5" stroke="#E6E6E6"/>
<path d="M149.867 52.6663H152.667V59.9999H150.8C150.552 59.9999 150.315 60.0964 150.14 60.2683C149.965 60.4403 149.867 60.6734 149.867 60.9165C149.867 61.1597 149.965 61.3928 150.14 61.5647C150.315 61.7367 150.552 61.8332 150.8 61.8332H173.2C173.448 61.8332 173.685 61.7367 173.86 61.5647C174.035 61.3928 174.133 61.1597 174.133 60.9165C174.133 60.6734 174.035 60.4403 173.86 60.2683C173.685 60.0964 173.448 59.9999 173.2 59.9999H171.333V52.6663H174.133C174.336 52.6661 174.534 52.6009 174.696 52.4805C174.858 52.3601 174.975 52.1911 175.03 51.9992C175.086 51.8073 175.076 51.6029 175.002 51.417C174.928 51.2312 174.795 51.074 174.622 50.9693L162.489 43.6358C162.342 43.547 162.173 43.5 162 43.5C161.827 43.5 161.658 43.547 161.511 43.6358L149.378 50.9693C149.205 51.074 149.072 51.2312 148.998 51.417C148.924 51.6029 148.914 51.8073 148.97 51.9992C149.025 52.1911 149.142 52.3601 149.304 52.4805C149.466 52.6009 149.664 52.6661 149.867 52.6663ZM154.533 52.6663H158.267V59.9999H154.533V52.6663ZM163.867 52.6663V59.9999H160.133V52.6663H163.867ZM169.467 59.9999H165.733V52.6663H169.467V59.9999ZM162 45.4921L170.836 50.833H153.164L162 45.4921ZM176 64.5833C176 64.8264 175.902 65.0596 175.727 65.2315C175.552 65.4034 175.314 65.5 175.067 65.5H148.933C148.686 65.5 148.448 65.4034 148.273 65.2315C148.098 65.0596 148 64.8264 148 64.5833C148 64.3402 148.098 64.107 148.273 63.9351C148.448 63.7632 148.686 63.6666 148.933 63.6666H175.067C175.314 63.6666 175.552 63.7632 175.727 63.9351C175.902 64.107 176 64.3402 176 64.5833Z" fill="#0357F0"/>
<path d="M154.477 97.5V77.5H155.758V97.5H154.477ZM158.484 83.7031C158.401 82.9635 158.057 82.3906 157.453 81.9844C156.849 81.5729 156.089 81.3672 155.172 81.3672C154.516 81.3672 153.948 81.4714 153.469 81.6797C152.99 81.8828 152.617 82.1641 152.352 82.5234C152.091 82.8776 151.961 83.2812 151.961 83.7344C151.961 84.1146 152.049 84.4427 152.227 84.7187C152.409 84.9948 152.646 85.2266 152.938 85.4141C153.234 85.5964 153.552 85.75 153.891 85.875C154.229 85.9948 154.555 86.0937 154.867 86.1719L156.43 86.5781C156.94 86.7031 157.464 86.8724 158 87.0859C158.536 87.2995 159.034 87.5807 159.492 87.9297C159.951 88.2786 160.32 88.7109 160.602 89.2266C160.888 89.7422 161.031 90.3594 161.031 91.0781C161.031 91.9844 160.797 92.7891 160.328 93.4922C159.865 94.1953 159.19 94.75 158.305 95.1562C157.424 95.5625 156.359 95.7656 155.109 95.7656C153.911 95.7656 152.875 95.5755 152 95.1953C151.125 94.8151 150.44 94.276 149.945 93.5781C149.451 92.875 149.177 92.0417 149.125 91.0781H151.547C151.594 91.6562 151.781 92.138 152.109 92.5234C152.443 92.9036 152.867 93.1875 153.383 93.375C153.904 93.5573 154.474 93.6484 155.094 93.6484C155.776 93.6484 156.383 93.5417 156.914 93.3281C157.451 93.1094 157.872 92.8073 158.18 92.4219C158.487 92.0312 158.641 91.5755 158.641 91.0547C158.641 90.5807 158.505 90.1927 158.234 89.8906C157.969 89.5885 157.607 89.3385 157.148 89.1406C156.695 88.9427 156.182 88.7682 155.609 88.6172L153.719 88.1016C152.438 87.7526 151.422 87.2396 150.672 86.5625C149.927 85.8854 149.555 84.9896 149.555 83.875C149.555 82.9531 149.805 82.1484 150.305 81.4609C150.805 80.7734 151.482 80.2396 152.336 79.8594C153.19 79.474 154.154 79.2812 155.227 79.2812C156.31 79.2812 157.266 79.4714 158.094 79.8516C158.927 80.2318 159.583 80.7552 160.063 81.4219C160.542 82.0833 160.792 82.8437 160.813 83.7031H158.484ZM168.539 95.7187C167.559 95.7187 166.679 95.5312 165.898 95.1562C165.122 94.776 164.502 94.2552 164.039 93.5938C163.575 92.9323 163.328 92.1771 163.296 91.3281H165.64C165.697 92.0156 166.002 92.5807 166.554 93.0234C167.106 93.4661 167.768 93.6875 168.539 93.6875C169.153 93.6875 169.697 93.5469 170.171 93.2656C170.65 92.9792 171.025 92.5859 171.296 92.0859C171.572 91.5859 171.71 91.0156 171.71 90.375C171.71 89.724 171.57 89.1432 171.289 88.6328C171.007 88.1224 170.619 87.7214 170.124 87.4297C169.635 87.138 169.072 86.9896 168.437 86.9844C167.953 86.9844 167.466 87.0677 166.976 87.2344C166.486 87.401 166.091 87.6198 165.789 87.8906L163.578 87.5625L164.476 79.5H173.273V81.5703H166.484L165.976 86.0469H166.07C166.382 85.7448 166.796 85.4922 167.312 85.2891C167.833 85.0859 168.39 84.9844 168.984 84.9844C169.958 84.9844 170.825 85.2161 171.585 85.6797C172.351 86.1432 172.953 86.776 173.39 87.5781C173.833 88.375 174.052 89.2917 174.046 90.3281C174.052 91.3646 173.817 92.2891 173.343 93.1016C172.874 93.9141 172.223 94.5547 171.39 95.0234C170.562 95.487 169.611 95.7187 168.539 95.7187ZM176.124 92.375V90.4219L183.038 79.5H184.577V82.375H183.6L178.655 90.2031V90.3281H188.132V92.375H176.124ZM183.71 95.5V91.7812L183.725 90.8906V79.5H186.015V95.5H183.71ZM192.883 93.3125L192.766 94.1641C192.688 94.7891 192.555 95.4401 192.368 96.1172C192.185 96.7995 191.995 97.4323 191.797 98.0156C191.604 98.599 191.446 99.0625 191.321 99.4063H189.664C189.732 99.0833 189.826 98.6458 189.946 98.0938C190.065 97.5469 190.183 96.9349 190.297 96.2578C190.412 95.5807 190.498 94.8906 190.555 94.1875L190.633 93.3125H192.883ZM195.842 95.5L202.826 81.6875V81.5703H194.748V79.5H205.326V81.6406L198.365 95.5H195.842ZM212.708 79.2812C213.422 79.2865 214.125 79.4167 214.818 79.6719C215.51 79.9271 216.135 80.3437 216.693 80.9219C217.255 81.5 217.703 82.2812 218.036 83.2656C218.375 84.2448 218.547 85.4635 218.552 86.9219C218.552 88.3229 218.411 89.5703 218.13 90.6641C217.849 91.7526 217.445 92.6719 216.919 93.4219C216.398 94.1719 215.765 94.7422 215.021 95.1328C214.276 95.5234 213.437 95.7187 212.505 95.7187C211.552 95.7187 210.706 95.5312 209.966 95.1562C209.226 94.7812 208.625 94.263 208.161 93.6016C207.698 92.9349 207.409 92.1693 207.294 91.3047H209.677C209.833 91.9922 210.151 92.5495 210.63 92.9766C211.114 93.3984 211.739 93.6094 212.505 93.6094C213.677 93.6094 214.591 93.099 215.247 92.0781C215.904 91.0521 216.234 89.6198 216.239 87.7812H216.114C215.844 88.2292 215.505 88.6146 215.099 88.9375C214.698 89.2604 214.247 89.5104 213.747 89.6875C213.247 89.8646 212.713 89.9531 212.146 89.9531C211.224 89.9531 210.385 89.7266 209.63 89.2734C208.875 88.8203 208.273 88.1979 207.825 87.4062C207.377 86.6146 207.154 85.7109 207.154 84.6953C207.154 83.6849 207.383 82.7682 207.841 81.9453C208.305 81.1224 208.95 80.4714 209.779 79.9922C210.612 79.5078 211.588 79.2708 212.708 79.2812ZM212.716 81.3125C212.107 81.3125 211.557 81.4635 211.068 81.7656C210.583 82.0625 210.2 82.4661 209.919 82.9766C209.638 83.4818 209.497 84.0443 209.497 84.6641C209.497 85.2839 209.633 85.8464 209.904 86.3516C210.18 86.8516 210.555 87.25 211.029 87.5469C211.508 87.8385 212.055 87.9844 212.669 87.9844C213.127 87.9844 213.555 87.8958 213.95 87.7187C214.346 87.5417 214.693 87.2969 214.989 86.9844C215.286 86.6667 215.518 86.3073 215.685 85.9062C215.851 85.5052 215.935 85.0833 215.935 84.6406C215.935 84.0521 215.794 83.5052 215.513 83C215.237 82.4948 214.857 82.0885 214.372 81.7812C213.888 81.4687 213.336 81.3125 212.716 81.3125ZM226.505 95.7656C225.27 95.7604 224.215 95.4349 223.34 94.7891C222.465 94.1432 221.796 93.2031 221.333 91.9687C220.869 90.7344 220.637 89.2474 220.637 87.5078C220.637 85.7734 220.869 84.2917 221.333 83.0625C221.801 81.8333 222.473 80.8958 223.348 80.25C224.228 79.6042 225.281 79.2812 226.505 79.2812C227.728 79.2812 228.778 79.6068 229.653 80.2578C230.528 80.9036 231.197 81.8411 231.661 83.0703C232.13 84.2943 232.364 85.7734 232.364 87.5078C232.364 89.2526 232.132 90.7422 231.669 91.9766C231.205 93.2057 230.536 94.1458 229.661 94.7969C228.786 95.4427 227.734 95.7656 226.505 95.7656ZM226.505 93.6797C227.588 93.6797 228.434 93.151 229.044 92.0937C229.658 91.0365 229.965 89.5078 229.965 87.5078C229.965 86.1797 229.825 85.0573 229.544 84.1406C229.268 83.2187 228.869 82.5208 228.348 82.0469C227.833 81.5677 227.218 81.3281 226.505 81.3281C225.426 81.3281 224.58 81.8594 223.965 82.9219C223.351 83.9844 223.041 85.513 223.036 87.5078C223.036 88.8411 223.174 89.9688 223.45 90.8906C223.731 91.8073 224.13 92.5026 224.645 92.9766C225.161 93.4453 225.781 93.6797 226.505 93.6797ZM235.686 95.6484C235.259 95.6484 234.891 95.4974 234.584 95.1953C234.277 94.888 234.123 94.5182 234.123 94.0859C234.123 93.6589 234.277 93.2943 234.584 92.9922C234.891 92.6849 235.259 92.5312 235.686 92.5312C236.113 92.5312 236.48 92.6849 236.787 92.9922C237.094 93.2943 237.248 93.6589 237.248 94.0859C237.248 94.3724 237.175 94.6354 237.029 94.875C236.889 95.1094 236.701 95.2969 236.467 95.4375C236.232 95.5781 235.972 95.6484 235.686 95.6484ZM239.57 92.375V90.4219L246.484 79.5H248.023V82.375H247.046L242.101 90.2031V90.3281H251.578V92.375H239.57ZM247.156 95.5V91.7812L247.171 90.8906V79.5H249.46V95.5H247.156ZM259.142 95.7187C258.162 95.7187 257.282 95.5312 256.501 95.1562C255.725 94.776 255.105 94.2552 254.642 93.5938C254.178 92.9323 253.931 92.1771 253.899 91.3281H256.243C256.3 92.0156 256.605 92.5807 257.157 93.0234C257.709 93.4661 258.371 93.6875 259.142 93.6875C259.756 93.6875 260.3 93.5469 260.774 93.2656C261.254 92.9792 261.629 92.5859 261.899 92.0859C262.175 91.5859 262.313 91.0156 262.313 90.375C262.313 89.724 262.173 89.1432 261.892 88.6328C261.61 88.1224 261.222 87.7214 260.728 87.4297C260.238 87.138 259.675 86.9896 259.04 86.9844C258.556 86.9844 258.069 87.0677 257.579 87.2344C257.089 87.401 256.694 87.6198 256.392 87.8906L254.181 87.5625L255.079 79.5H263.876V81.5703H257.087L256.579 86.0469H256.673C256.985 85.7448 257.399 85.4922 257.915 85.2891C258.436 85.0859 258.993 84.9844 259.587 84.9844C260.561 84.9844 261.428 85.2161 262.188 85.6797C262.954 86.1432 263.556 86.776 263.993 87.5781C264.436 88.375 264.655 89.2917 264.649 90.3281C264.655 91.3646 264.42 92.2891 263.946 93.1016C263.478 93.9141 262.826 94.5547 261.993 95.0234C261.165 95.487 260.214 95.7187 259.142 95.7187Z" fill="#323232"/>
<rect x="387" y="110.5" width="67" height="25" rx="12.5" fill="#0357F0"/>
<path d="M400.917 128.591V117.682H401.616V128.591H400.917ZM403.103 121.065C403.057 120.662 402.87 120.349 402.54 120.128C402.211 119.903 401.796 119.791 401.296 119.791C400.938 119.791 400.628 119.848 400.367 119.962C400.106 120.072 399.903 120.226 399.758 120.422C399.616 120.615 399.545 120.835 399.545 121.082C399.545 121.29 399.593 121.469 399.689 121.619C399.789 121.77 399.918 121.896 400.077 121.999C400.239 122.098 400.412 122.182 400.597 122.25C400.782 122.315 400.959 122.369 401.13 122.412L401.982 122.634C402.26 122.702 402.546 122.794 402.839 122.911C403.131 123.027 403.403 123.18 403.653 123.371C403.903 123.561 404.104 123.797 404.258 124.078C404.414 124.359 404.492 124.696 404.492 125.088C404.492 125.582 404.364 126.021 404.108 126.405C403.856 126.788 403.488 127.091 403.005 127.312C402.525 127.534 401.944 127.645 401.262 127.645C400.608 127.645 400.043 127.541 399.566 127.334C399.089 127.126 398.715 126.832 398.445 126.452C398.175 126.068 398.026 125.614 397.998 125.088H399.319C399.344 125.403 399.447 125.666 399.626 125.876C399.807 126.084 400.039 126.239 400.32 126.341C400.604 126.44 400.915 126.49 401.253 126.49C401.626 126.49 401.957 126.432 402.246 126.315C402.539 126.196 402.769 126.031 402.937 125.821C403.104 125.608 403.188 125.359 403.188 125.075C403.188 124.817 403.114 124.605 402.966 124.44C402.822 124.276 402.624 124.139 402.374 124.031C402.127 123.923 401.847 123.828 401.535 123.746L400.503 123.464C399.805 123.274 399.251 122.994 398.841 122.625C398.435 122.256 398.232 121.767 398.232 121.159C398.232 120.656 398.368 120.217 398.641 119.842C398.914 119.467 399.283 119.176 399.749 118.969C400.215 118.759 400.741 118.653 401.326 118.653C401.917 118.653 402.438 118.757 402.89 118.964C403.344 119.172 403.702 119.457 403.964 119.821C404.225 120.182 404.361 120.597 404.373 121.065H403.103ZM405.706 127.5V126.545L408.659 123.486C408.975 123.153 409.235 122.862 409.439 122.612C409.647 122.359 409.801 122.119 409.904 121.892C410.006 121.665 410.057 121.423 410.057 121.168C410.057 120.878 409.989 120.628 409.853 120.418C409.716 120.205 409.53 120.041 409.294 119.928C409.058 119.811 408.793 119.753 408.497 119.753C408.185 119.753 407.912 119.817 407.679 119.945C407.446 120.072 407.267 120.253 407.142 120.486C407.017 120.719 406.955 120.991 406.955 121.304H405.698C405.698 120.773 405.82 120.308 406.064 119.911C406.308 119.513 406.644 119.205 407.07 118.986C407.496 118.764 407.98 118.653 408.523 118.653C409.071 118.653 409.554 118.763 409.972 118.982C410.392 119.197 410.72 119.493 410.956 119.868C411.192 120.24 411.31 120.661 411.31 121.129C411.31 121.453 411.249 121.77 411.127 122.08C411.007 122.389 410.799 122.734 410.5 123.115C410.202 123.493 409.787 123.952 409.256 124.491L407.522 126.307V126.371H411.451V127.5H405.706ZM415.774 127.619C415.164 127.619 414.624 127.514 414.155 127.304C413.689 127.094 413.324 126.804 413.06 126.435C412.796 126.065 412.665 125.645 412.668 125.173C412.665 124.804 412.74 124.464 412.894 124.155C413.05 123.842 413.262 123.582 413.529 123.375C413.796 123.165 414.094 123.031 414.424 122.974V122.923C413.989 122.818 413.641 122.585 413.38 122.224C413.118 121.864 412.989 121.449 412.992 120.98C412.989 120.534 413.107 120.136 413.345 119.787C413.587 119.435 413.918 119.158 414.338 118.956C414.759 118.754 415.238 118.653 415.774 118.653C416.306 118.653 416.78 118.756 417.198 118.96C417.618 119.162 417.949 119.439 418.191 119.791C418.432 120.141 418.554 120.537 418.557 120.98C418.554 121.449 418.421 121.864 418.157 122.224C417.892 122.585 417.549 122.818 417.125 122.923V122.974C417.452 123.031 417.746 123.165 418.007 123.375C418.272 123.582 418.482 123.842 418.638 124.155C418.797 124.464 418.878 124.804 418.881 125.173C418.878 125.645 418.745 126.065 418.48 126.435C418.216 126.804 417.85 127.094 417.381 127.304C416.915 127.514 416.38 127.619 415.774 127.619ZM415.774 126.541C416.135 126.541 416.448 126.482 416.712 126.362C416.976 126.24 417.181 126.071 417.326 125.855C417.47 125.636 417.544 125.381 417.547 125.088C417.544 124.784 417.465 124.516 417.309 124.283C417.155 124.05 416.946 123.866 416.682 123.733C416.418 123.599 416.115 123.533 415.774 123.533C415.431 123.533 415.125 123.599 414.858 123.733C414.591 123.866 414.381 124.05 414.228 124.283C414.074 124.516 413.999 124.784 414.002 125.088C413.999 125.381 414.068 125.636 414.211 125.855C414.355 126.071 414.561 126.24 414.828 126.362C415.095 126.482 415.411 126.541 415.774 126.541ZM415.774 122.48C416.064 122.48 416.321 122.422 416.546 122.305C416.77 122.189 416.946 122.027 417.074 121.82C417.205 121.612 417.272 121.369 417.274 121.091C417.272 120.818 417.206 120.58 417.078 120.375C416.953 120.17 416.779 120.013 416.554 119.902C416.33 119.788 416.07 119.732 415.774 119.732C415.473 119.732 415.209 119.788 414.982 119.902C414.757 120.013 414.583 120.17 414.458 120.375C414.333 120.58 414.272 120.818 414.274 121.091C414.272 121.369 414.334 121.612 414.462 121.82C414.59 122.027 414.766 122.189 414.99 122.305C415.218 122.422 415.479 122.48 415.774 122.48ZM421.585 126.307L421.521 126.771C421.478 127.112 421.406 127.467 421.303 127.837C421.204 128.209 421.1 128.554 420.992 128.872C420.887 129.19 420.8 129.443 420.732 129.631H419.829C419.866 129.455 419.917 129.216 419.982 128.915C420.048 128.616 420.112 128.283 420.174 127.913C420.237 127.544 420.283 127.168 420.315 126.784L420.357 126.307H421.585ZM425.867 127.619C425.333 127.619 424.853 127.517 424.427 127.312C424.003 127.105 423.665 126.821 423.412 126.46C423.16 126.099 423.025 125.688 423.008 125.224H424.286C424.317 125.599 424.483 125.908 424.785 126.149C425.086 126.391 425.446 126.511 425.867 126.511C426.202 126.511 426.499 126.435 426.758 126.281C427.019 126.125 427.223 125.911 427.371 125.638C427.522 125.365 427.597 125.054 427.597 124.705C427.597 124.349 427.52 124.033 427.367 123.754C427.213 123.476 427.002 123.257 426.732 123.098C426.465 122.939 426.158 122.858 425.811 122.855C425.547 122.855 425.282 122.901 425.015 122.991C424.748 123.082 424.532 123.202 424.367 123.349L423.161 123.17L423.651 118.773H428.449V119.902H424.746L424.469 122.344H424.52C424.691 122.179 424.917 122.041 425.198 121.93C425.482 121.82 425.786 121.764 426.11 121.764C426.641 121.764 427.114 121.891 427.529 122.143C427.946 122.396 428.275 122.741 428.513 123.179C428.755 123.614 428.874 124.114 428.871 124.679C428.874 125.244 428.746 125.749 428.488 126.192C428.232 126.635 427.877 126.984 427.422 127.24C426.971 127.493 426.452 127.619 425.867 127.619ZM430.482 127.5L434.291 119.966V119.902H429.885V118.773H435.655V119.94L431.858 127.5H430.482ZM439.748 127.645C439.074 127.642 438.499 127.464 438.022 127.112C437.545 126.76 437.18 126.247 436.927 125.574C436.674 124.901 436.547 124.089 436.547 123.141C436.547 122.195 436.674 121.386 436.927 120.716C437.182 120.045 437.549 119.534 438.026 119.182C438.506 118.83 439.08 118.653 439.748 118.653C440.415 118.653 440.988 118.831 441.465 119.186C441.942 119.538 442.307 120.05 442.56 120.72C442.816 121.388 442.944 122.195 442.944 123.141C442.944 124.092 442.817 124.905 442.564 125.578C442.312 126.249 441.947 126.761 441.469 127.116C440.992 127.469 440.418 127.645 439.748 127.645ZM439.748 126.507C440.339 126.507 440.8 126.219 441.133 125.642C441.468 125.065 441.635 124.232 441.635 123.141C441.635 122.416 441.559 121.804 441.405 121.304C441.255 120.801 441.037 120.42 440.753 120.162C440.472 119.901 440.137 119.77 439.748 119.77C439.16 119.77 438.698 120.06 438.363 120.639C438.028 121.219 437.858 122.053 437.856 123.141C437.856 123.868 437.931 124.483 438.081 124.986C438.235 125.486 438.452 125.865 438.733 126.124C439.015 126.379 439.353 126.507 439.748 126.507Z" fill="white"/>
<rect x="136" y="284.5" width="90" height="49" fill="url(#paint9_linear_1_3691)"/>
</g>
<defs>
<linearGradient id="paint0_linear_1_3691" x1="257.5" y1="277.5" x2="257.5" y2="320.5" gradientUnits="userSpaceOnUse">
<stop stop-color="#0357F0" stop-opacity="0.64"/>
<stop offset="1" stop-color="#0357F0" stop-opacity="0"/>
</linearGradient>
<linearGradient id="paint1_linear_1_3691" x1="305.5" y1="219.5" x2="305.5" y2="320.5" gradientUnits="userSpaceOnUse">
<stop stop-color="#0357F0" stop-opacity="0.64"/>
<stop offset="1" stop-color="#0357F0" stop-opacity="0"/>
</linearGradient>
<linearGradient id="paint2_linear_1_3691" x1="353.5" y1="217.5" x2="353.5" y2="320.5" gradientUnits="userSpaceOnUse">
<stop stop-color="#0357F0" stop-opacity="0.64"/>
<stop offset="1" stop-color="#0357F0" stop-opacity="0"/>
</linearGradient>
<linearGradient id="paint3_linear_1_3691" x1="401.5" y1="179.5" x2="401.5" y2="320.5" gradientUnits="userSpaceOnUse">
<stop stop-color="#0357F0" stop-opacity="0.64"/>
<stop offset="1" stop-color="#0357F0" stop-opacity="0"/>
</linearGradient>
<linearGradient id="paint4_linear_1_3691" x1="449.5" y1="148.5" x2="449.5" y2="320.5" gradientUnits="userSpaceOnUse">
<stop stop-color="#0357F0" stop-opacity="0.64"/>
<stop offset="1" stop-color="#0357F0" stop-opacity="0"/>
</linearGradient>
<linearGradient id="paint5_linear_1_3691" x1="497.5" y1="157.5" x2="497.5" y2="320.5" gradientUnits="userSpaceOnUse">
<stop stop-color="#0357F0" stop-opacity="0.64"/>
<stop offset="1" stop-color="#0357F0" stop-opacity="0"/>
</linearGradient>
<linearGradient id="paint6_linear_1_3691" x1="545.5" y1="187.5" x2="545.5" y2="320.5" gradientUnits="userSpaceOnUse">
<stop stop-color="#0357F0" stop-opacity="0.64"/>
<stop offset="1" stop-color="#0357F0" stop-opacity="0"/>
</linearGradient>
<linearGradient id="paint7_linear_1_3691" x1="593.5" y1="125.5" x2="593.5" y2="320.5" gradientUnits="userSpaceOnUse">
<stop stop-color="#0357F0" stop-opacity="0.64"/>
<stop offset="1" stop-color="#0357F0" stop-opacity="0"/>
</linearGradient>
<linearGradient id="paint8_linear_1_3691" x1="383.5" y1="69.5" x2="383.5" y2="328.5" gradientUnits="userSpaceOnUse">
<stop stop-color="#0357F0"/>
<stop offset="1" stop-color="white" stop-opacity="0"/>
</linearGradient>
<linearGradient id="paint9_linear_1_3691" x1="136" y1="309" x2="226" y2="309" gradientUnits="userSpaceOnUse">
<stop stop-color="white"/>
<stop offset="1" stop-color="white" stop-opacity="0"/>
</linearGradient>
<clipPath id="clip0_1_3691">
<rect width="768" height="369" rx="14" fill="white"/>
</clipPath>
</defs>
</svg>
