<svg width="389" height="291" viewBox="0 0 389 291" fill="none" xmlns="http://www.w3.org/2000/svg">
<path d="M234 121L290 106" stroke="#DBE8FF" stroke-width="3"/>
<path d="M225 167L324 217" stroke="#DBE8FF" stroke-width="3"/>
<path d="M60 55L132 101" stroke="#DBE8FF" stroke-width="3"/>
<path d="M142 178L105 231" stroke="#DBE8FF" stroke-width="3"/>
<g filter="url(#filter0_i_2_37)">
<rect x="118" y="74" width="122" height="122" rx="61" fill="#0357F0"/>
<rect x="119.75" y="75.75" width="118.5" height="118.5" rx="59.25" stroke="#DBE8FF" stroke-width="3.5"/>
<path d="M207.171 147.843L184.529 109.116C183.963 108.167 183.156 107.381 182.186 106.834C181.216 106.288 180.119 106 179.001 106C177.884 106 176.786 106.288 175.817 106.834C174.847 107.381 174.039 108.167 173.473 109.116L150.831 147.843C150.287 148.76 150 149.804 150 150.867C150 151.93 150.287 152.974 150.831 153.891C151.39 154.846 152.196 155.637 153.168 156.183C154.139 156.729 155.241 157.011 156.359 157H201.643C202.761 157.01 203.862 156.728 204.832 156.182C205.802 155.635 206.608 154.845 207.166 153.891C207.711 152.974 207.999 151.931 208 150.868C208.001 149.805 207.715 148.761 207.171 147.843ZM203.58 151.849C203.383 152.18 203.099 152.454 202.759 152.642C202.419 152.831 202.034 152.926 201.643 152.92H156.359C155.969 152.926 155.584 152.831 155.244 152.642C154.903 152.454 154.62 152.18 154.422 151.849C154.244 151.551 154.149 151.211 154.149 150.864C154.149 150.518 154.244 150.178 154.422 149.88L177.065 111.154C177.266 110.824 177.551 110.551 177.891 110.361C178.231 110.171 178.616 110.072 179.006 110.072C179.397 110.072 179.782 110.171 180.122 110.361C180.462 110.551 180.747 110.824 180.948 111.154L203.59 149.88C203.768 150.179 203.86 150.52 203.858 150.866C203.857 151.212 203.76 151.552 203.58 151.849ZM176.93 136.6V126.4C176.93 125.859 177.148 125.34 177.537 124.957C177.925 124.575 178.452 124.36 179.001 124.36C179.551 124.36 180.077 124.575 180.466 124.957C180.854 125.34 181.073 125.859 181.073 126.4V136.6C181.073 137.141 180.854 137.66 180.466 138.042C180.077 138.425 179.551 138.64 179.001 138.64C178.452 138.64 177.925 138.425 177.537 138.042C177.148 137.66 176.93 137.141 176.93 136.6ZM182.108 145.78C182.108 146.385 181.926 146.977 181.585 147.48C181.243 147.983 180.758 148.375 180.19 148.607C179.623 148.838 178.998 148.899 178.395 148.781C177.792 148.663 177.239 148.371 176.804 147.943C176.37 147.516 176.074 146.97 175.954 146.377C175.834 145.783 175.896 145.168 176.131 144.609C176.366 144.05 176.764 143.572 177.275 143.236C177.786 142.899 178.387 142.72 179.001 142.72C179.825 142.72 180.616 143.042 181.198 143.616C181.781 144.19 182.108 144.968 182.108 145.78Z" fill="white"/>
</g>
<g filter="url(#filter1_i_2_37)">
<rect x="284" y="62" width="70" height="70" rx="35" fill="#0357F0"/>
<rect x="285.75" y="63.75" width="66.5" height="66.5" rx="33.25" stroke="#DBE8FF" stroke-width="3.5"/>
<path d="M330.915 96.151L315.374 112.802C315.209 112.978 314.992 113.095 314.754 113.137C314.517 113.178 314.273 113.141 314.058 113.031C313.844 112.922 313.671 112.745 313.566 112.529C313.46 112.312 313.428 112.067 313.474 111.831L315.508 101.656L307.512 98.6528C307.34 98.5886 307.187 98.4828 307.066 98.3449C306.945 98.207 306.86 98.0414 306.819 97.8627C306.778 97.684 306.782 97.4979 306.83 97.321C306.878 97.1441 306.969 96.9819 307.096 96.8489L322.636 80.198C322.801 80.0222 323.019 79.9048 323.256 79.8634C323.493 79.8221 323.737 79.859 323.952 79.9686C324.166 80.0783 324.339 80.2547 324.445 80.4713C324.55 80.6879 324.582 80.9329 324.536 81.1693L322.496 91.3555L330.493 94.3541C330.663 94.4187 330.815 94.5244 330.935 94.6617C331.055 94.7991 331.139 94.9638 331.181 95.1414C331.222 95.3191 331.219 95.5041 331.171 95.6802C331.124 95.8562 331.034 96.018 330.909 96.151H330.915Z" fill="white"/>
</g>
<g filter="url(#filter2_i_2_37)">
<rect x="319" y="196" width="70" height="70" rx="35" fill="#0357F0"/>
<rect x="320.75" y="197.75" width="66.5" height="66.5" rx="33.25" stroke="#DBE8FF" stroke-width="3.5"/>
<path d="M365.654 224.925L358.026 217.318C357.925 217.217 357.805 217.137 357.672 217.082C357.54 217.028 357.398 217 357.255 217H344.179C343.601 217 343.047 217.229 342.638 217.637C342.23 218.044 342 218.597 342 219.173V243.08C342 243.656 342.23 244.209 342.638 244.617C343.047 245.024 343.601 245.253 344.179 245.253H363.793C364.371 245.253 364.926 245.024 365.334 244.617C365.743 244.209 365.973 243.656 365.973 243.08V225.693C365.973 225.551 365.945 225.409 365.89 225.277C365.835 225.145 365.755 225.026 365.654 224.925ZM358.345 237.647H349.628C349.339 237.647 349.061 237.532 348.857 237.328C348.653 237.125 348.538 236.848 348.538 236.56C348.538 236.272 348.653 235.995 348.857 235.792C349.061 235.588 349.339 235.473 349.628 235.473H358.345C358.634 235.473 358.911 235.588 359.115 235.792C359.32 235.995 359.435 236.272 359.435 236.56C359.435 236.848 359.32 237.125 359.115 237.328C358.911 237.532 358.634 237.647 358.345 237.647ZM358.345 233.3H349.628C349.339 233.3 349.061 233.186 348.857 232.982C348.653 232.778 348.538 232.502 348.538 232.213C348.538 231.925 348.653 231.649 348.857 231.445C349.061 231.241 349.339 231.127 349.628 231.127H358.345C358.634 231.127 358.911 231.241 359.115 231.445C359.32 231.649 359.435 231.925 359.435 232.213C359.435 232.502 359.32 232.778 359.115 232.982C358.911 233.186 358.634 233.3 358.345 233.3ZM357.255 225.693V219.717L363.248 225.693H357.255Z" fill="white"/>
</g>
<g filter="url(#filter3_i_2_37)">
<rect x="53" y="221" width="70" height="70" rx="35" fill="#0357F0"/>
<rect x="54.75" y="222.75" width="66.5" height="66.5" rx="33.25" stroke="#DBE8FF" stroke-width="3.5"/>
<path d="M102 245.4V253.8C102 261.708 98.1454 266.5 94.9116 269.128C91.4286 271.957 87.9637 272.919 87.8127 272.958C87.605 273.014 87.386 273.014 87.1783 272.958C87.0272 272.919 83.5669 271.957 80.0793 269.128C76.8546 266.5 73 261.708 73 253.8V245.4C73 244.763 73.2546 244.153 73.7078 243.703C74.161 243.253 74.7757 243 75.4167 243H99.5833C100.224 243 100.839 243.253 101.292 243.703C101.745 244.153 102 244.763 102 245.4Z" fill="white"/>
</g>
<g filter="url(#filter4_i_2_37)">
<rect width="70" height="70" rx="35" fill="#0357F0"/>
<rect x="1.75" y="1.75" width="66.5" height="66.5" rx="33.25" stroke="#DBE8FF" stroke-width="3.5"/>
<path d="M47 23.869V30.2477C47 30.5297 46.8903 30.8001 46.6949 30.9995C46.4996 31.1988 46.2346 31.3109 45.9583 31.3109H39.7083C39.5022 31.311 39.3006 31.2488 39.1292 31.132C38.9577 31.0151 38.8241 30.849 38.7452 30.6547C38.6663 30.4603 38.6456 30.2464 38.6859 30.0401C38.7262 29.8338 38.8255 29.6442 38.9714 29.4956L41.3555 27.0583C39.4376 25.1829 36.8866 24.1319 34.2305 24.1228H34.1719C31.4502 24.1173 28.8359 25.2058 26.8945 27.1527C26.6956 27.3422 26.4319 27.4448 26.1598 27.4384C25.8878 27.432 25.6289 27.3173 25.4387 27.1186C25.2485 26.92 25.142 26.6532 25.142 26.3755C25.1421 26.0978 25.2486 25.831 25.4388 25.6324C27.7609 23.3169 30.8746 22.0143 34.121 22.0001C37.3675 21.986 40.4919 23.2615 42.8333 25.5567L45.224 23.1168C45.3698 22.9689 45.5552 22.8683 45.757 22.8277C45.9587 22.7871 46.1677 22.8084 46.3576 22.8888C46.5475 22.9693 46.7098 23.1052 46.8241 23.2797C46.9385 23.4541 46.9996 23.6591 47 23.869ZM42.1055 41.8478C40.176 43.7712 37.5907 44.8557 34.8937 44.8733C32.1966 44.8909 29.598 43.8402 27.6445 41.9421L30.0286 39.5089C30.1758 39.3604 30.2764 39.1706 30.3174 38.9636C30.3584 38.7565 30.3381 38.5417 30.2591 38.3465C30.18 38.1514 30.0458 37.9846 29.8735 37.8676C29.7012 37.7506 29.4986 37.6887 29.2917 37.6896H23.0417C22.7654 37.6896 22.5004 37.8016 22.3051 38.001C22.1097 38.2004 22 38.4708 22 38.7527V45.1315C21.9998 45.3419 22.0608 45.5476 22.1753 45.7226C22.2897 45.8976 22.4525 46.034 22.6429 46.1145C22.8334 46.195 23.0429 46.2161 23.2451 46.175C23.4473 46.1339 23.633 46.0325 23.7786 45.8837L26.1667 43.4438C28.4742 45.7167 31.5535 46.9909 34.7604 47H34.8294C38.0952 47.0085 41.2327 45.7037 43.5625 43.368C43.7527 43.1694 43.8592 42.9027 43.8593 42.625C43.8593 42.3472 43.7528 42.0805 43.5626 41.8819C43.3724 41.6832 43.1135 41.5684 42.8415 41.5621C42.5694 41.5557 42.3057 41.6582 42.1068 41.8478H42.1055Z" fill="white"/>
</g>
<defs>
<filter id="filter0_i_2_37" x="118" y="74" width="122" height="122" filterUnits="userSpaceOnUse" color-interpolation-filters="sRGB">
<feFlood flood-opacity="0" result="BackgroundImageFix"/>
<feBlend mode="normal" in="SourceGraphic" in2="BackgroundImageFix" result="shape"/>
<feColorMatrix in="SourceAlpha" type="matrix" values="0 0 0 0 0 0 0 0 0 0 0 0 0 0 0 0 0 0 127 0" result="hardAlpha"/>
<feMorphology radius="8" operator="erode" in="SourceAlpha" result="effect1_innerShadow_2_37"/>
<feOffset/>
<feGaussianBlur stdDeviation="4"/>
<feComposite in2="hardAlpha" operator="arithmetic" k2="-1" k3="1"/>
<feColorMatrix type="matrix" values="0 0 0 0 1 0 0 0 0 1 0 0 0 0 1 0 0 0 0.4 0"/>
<feBlend mode="normal" in2="shape" result="effect1_innerShadow_2_37"/>
</filter>
<filter id="filter1_i_2_37" x="284" y="62" width="70" height="70" filterUnits="userSpaceOnUse" color-interpolation-filters="sRGB">
<feFlood flood-opacity="0" result="BackgroundImageFix"/>
<feBlend mode="normal" in="SourceGraphic" in2="BackgroundImageFix" result="shape"/>
<feColorMatrix in="SourceAlpha" type="matrix" values="0 0 0 0 0 0 0 0 0 0 0 0 0 0 0 0 0 0 127 0" result="hardAlpha"/>
<feMorphology radius="8" operator="erode" in="SourceAlpha" result="effect1_innerShadow_2_37"/>
<feOffset/>
<feGaussianBlur stdDeviation="4"/>
<feComposite in2="hardAlpha" operator="arithmetic" k2="-1" k3="1"/>
<feColorMatrix type="matrix" values="0 0 0 0 1 0 0 0 0 1 0 0 0 0 1 0 0 0 0.4 0"/>
<feBlend mode="normal" in2="shape" result="effect1_innerShadow_2_37"/>
</filter>
<filter id="filter2_i_2_37" x="319" y="196" width="70" height="70" filterUnits="userSpaceOnUse" color-interpolation-filters="sRGB">
<feFlood flood-opacity="0" result="BackgroundImageFix"/>
<feBlend mode="normal" in="SourceGraphic" in2="BackgroundImageFix" result="shape"/>
<feColorMatrix in="SourceAlpha" type="matrix" values="0 0 0 0 0 0 0 0 0 0 0 0 0 0 0 0 0 0 127 0" result="hardAlpha"/>
<feMorphology radius="8" operator="erode" in="SourceAlpha" result="effect1_innerShadow_2_37"/>
<feOffset/>
<feGaussianBlur stdDeviation="4"/>
<feComposite in2="hardAlpha" operator="arithmetic" k2="-1" k3="1"/>
<feColorMatrix type="matrix" values="0 0 0 0 1 0 0 0 0 1 0 0 0 0 1 0 0 0 0.4 0"/>
<feBlend mode="normal" in2="shape" result="effect1_innerShadow_2_37"/>
</filter>
<filter id="filter3_i_2_37" x="53" y="221" width="70" height="70" filterUnits="userSpaceOnUse" color-interpolation-filters="sRGB">
<feFlood flood-opacity="0" result="BackgroundImageFix"/>
<feBlend mode="normal" in="SourceGraphic" in2="BackgroundImageFix" result="shape"/>
<feColorMatrix in="SourceAlpha" type="matrix" values="0 0 0 0 0 0 0 0 0 0 0 0 0 0 0 0 0 0 127 0" result="hardAlpha"/>
<feMorphology radius="8" operator="erode" in="SourceAlpha" result="effect1_innerShadow_2_37"/>
<feOffset/>
<feGaussianBlur stdDeviation="4"/>
<feComposite in2="hardAlpha" operator="arithmetic" k2="-1" k3="1"/>
<feColorMatrix type="matrix" values="0 0 0 0 1 0 0 0 0 1 0 0 0 0 1 0 0 0 0.4 0"/>
<feBlend mode="normal" in2="shape" result="effect1_innerShadow_2_37"/>
</filter>
<filter id="filter4_i_2_37" x="0" y="0" width="70" height="70" filterUnits="userSpaceOnUse" color-interpolation-filters="sRGB">
<feFlood flood-opacity="0" result="BackgroundImageFix"/>
<feBlend mode="normal" in="SourceGraphic" in2="BackgroundImageFix" result="shape"/>
<feColorMatrix in="SourceAlpha" type="matrix" values="0 0 0 0 0 0 0 0 0 0 0 0 0 0 0 0 0 0 127 0" result="hardAlpha"/>
<feMorphology radius="8" operator="erode" in="SourceAlpha" result="effect1_innerShadow_2_37"/>
<feOffset/>
<feGaussianBlur stdDeviation="4"/>
<feComposite in2="hardAlpha" operator="arithmetic" k2="-1" k3="1"/>
<feColorMatrix type="matrix" values="0 0 0 0 1 0 0 0 0 1 0 0 0 0 1 0 0 0 0.4 0"/>
<feBlend mode="normal" in2="shape" result="effect1_innerShadow_2_37"/>
</filter>
</defs>
</svg>
