<svg width="155" height="15" viewBox="0 0 155 15" fill="none" xmlns="http://www.w3.org/2000/svg">
<g clip-path="url(#clip0_1_5584)">
<path d="M0 14.7154H3.32642C3.30468 13.8821 3.30468 13.0691 3.30468 11.9106V8.61788H10.9359V11.9106C10.9359 13.0691 10.9359 13.9024 10.9142 14.7154H14.2406C14.2188 13.8821 14.2188 13.0691 14.2188 11.9106V2.90649C14.2188 1.84958 14.2188 1.0569 14.2406 0.284546H10.9142C10.9359 1.0569 10.9359 1.84958 10.9359 2.90649V5.93495H3.30468V2.90649C3.30468 1.84958 3.30468 1.0569 3.32642 0.284546H0C0.0217412 1.0569 0.0217413 1.84958 0.0217413 2.90649V11.9106C0.0217413 13.0691 0.0217412 13.9024 0 14.7154Z" fill="#034A4C"/>
<path d="M17.272 11.9106C17.272 13.0691 17.272 13.9228 17.2502 14.7154H29.5123V12.0935C27.773 12.1138 24.3596 12.1138 22.0985 12.1138H20.5549V8.61788H22.229C23.9683 8.61788 26.9903 8.61788 28.2079 8.6382V6.11788H20.5549V2.88617H21.9898C24.1422 2.88617 27.5991 2.88617 29.121 2.90649V0.284546H17.2502C17.272 1.03658 17.272 1.84958 17.272 2.90649V11.9106Z" fill="#034A4C"/>
<path d="M35.6346 0.284546C34.504 3.35365 31.1993 11.9512 30.0688 14.7154H33.5909L34.5475 11.9919H41.6569L42.5918 14.7154H46.2226C45.1355 11.9512 41.9178 3.35365 40.809 0.284546H35.6346ZM35.9389 8.0691C36.5259 6.3008 37.1347 4.51219 37.6348 3.04877H38.6131C39.1132 4.49186 39.7002 6.28048 40.2872 8.02845L40.7655 9.43088H35.4606L35.9389 8.0691Z" fill="#034A4C"/>
<path d="M59.2407 14.7154V11.9309C57.5013 11.9512 55.849 11.9512 54.3271 11.9512H50.9789V2.86584C50.9789 1.82926 50.9789 1.0569 51.0007 0.284546H47.6743C47.696 1.0569 47.696 1.84958 47.696 2.92682V11.8699C47.696 13.0285 47.696 13.9024 47.6743 14.7154H59.2407Z" fill="#034A4C"/>
<path d="M63.1403 11.9106C63.1403 13.0691 63.1403 13.9024 63.1186 14.7154H66.445C66.4233 13.8821 66.4233 13.0691 66.4233 11.9106V3.04877H68.5974C69.4671 3.04877 70.6411 3.04877 72.2065 3.0691V0.284546H57.3789V3.0691C59.2486 3.04877 60.4009 3.04877 61.2706 3.04877H63.1403V11.9106Z" fill="#034A4C"/>
<path d="M73.9153 14.7154H77.2418C77.22 13.8821 77.22 13.0691 77.22 11.9106V8.61788H84.8512V11.9106C84.8512 13.0691 84.8512 13.9024 84.8295 14.7154H88.1559C88.1342 13.8821 88.1342 13.0691 88.1342 11.9106V2.90649C88.1342 1.84958 88.1342 1.0569 88.1559 0.284546H84.8295C84.8512 1.0569 84.8512 1.84958 84.8512 2.90649V5.93495H77.22V2.90649C77.22 1.84958 77.22 1.0569 77.2418 0.284546H73.9153C73.9371 1.0569 73.9371 1.84958 73.9371 2.90649V11.9106C73.9371 13.0691 73.9371 13.9024 73.9153 14.7154Z" fill="#034A4C"/>
<path d="M102.732 14.7154V11.9309C100.993 11.9512 99.3405 11.9512 97.8186 11.9512H94.4704V2.86584C94.4704 1.82926 94.4704 1.0569 94.4922 0.284546H91.1658C91.1875 1.0569 91.1875 1.84958 91.1875 2.92682V11.8699C91.1875 13.0285 91.1875 13.9024 91.1658 14.7154H102.732Z" fill="#034A4C"/>
<path d="M104.786 11.9106C104.786 13.0691 104.786 13.9228 104.764 14.7154H117.026V12.0935C115.287 12.1138 111.873 12.1138 109.612 12.1138H108.069V8.61788H109.743C111.482 8.61788 114.504 8.61788 115.722 8.6382V6.11788H108.069V2.88617H109.504C111.656 2.88617 115.113 2.88617 116.635 2.90649V0.284546H104.764C104.786 1.03658 104.786 1.84958 104.786 2.90649V11.9106Z" fill="#034A4C"/>
<path d="M123.648 11.9106C123.648 13.0691 123.648 13.9024 123.627 14.7154H126.953C126.931 13.8821 126.931 13.0691 126.931 11.9106V3.04877H129.105C129.975 3.04877 131.149 3.04877 132.715 3.0691V0.284546H117.887V3.0691C119.757 3.04877 120.909 3.04877 121.779 3.04877H123.648V11.9106Z" fill="#034A4C"/>
<path d="M134.445 11.9106C134.445 13.0691 134.445 13.9024 134.424 14.7154H137.837C137.815 13.8821 137.815 13.0691 137.815 11.9106V2.90649C137.815 1.84958 137.815 1.0569 137.837 0.284546H134.424C134.445 1.0569 134.445 1.84958 134.445 2.90649V11.9106Z" fill="#034A4C"/>
<path d="M147.607 15C153.238 15 155.043 13.6179 154.999 9.08537L151.76 9.00407C151.76 11.4634 151.086 12.2561 147.651 12.2561C144.324 12.2561 143.455 11.3821 143.455 7.5813V7.4187C143.455 3.69919 144.324 2.76423 147.651 2.76423C151.108 2.76423 151.738 3.51626 151.738 5.99593L154.977 5.91463C155.021 1.32114 153.238 0 147.607 0C141.998 0 140.085 1.68699 140.085 7.1748V7.8252C140.085 13.2927 141.998 15 147.607 15Z" fill="#034A4C"/>
</g>
<defs>
<clipPath id="clip0_1_5584">
<rect width="155" height="15" fill="white"/>
</clipPath>
</defs>
</svg>
